<svg xmlns="http://www.w3.org/2000/svg" width="35" height="36" viewBox="0 0 35 36">
    <g fill="#003274">
        <path d="M20.916 33.16h-5.968c-.66 0-1.194.533-1.194 1.192 0 .66.534 1.193 1.194 1.193h5.968c.66 0 1.194-.534 1.194-1.193s-.535-1.193-1.194-1.193zM29.716 30.256l-2.196-4.57V14.584C27.52 9.299 23.219 5 17.932 5c-5.287 0-9.588 4.3-9.588 9.584v11.102l-2.196 4.57c-.178.37-.153.805.065 1.152.219.347.6.558 1.01.558H28.64c.41 0 .792-.21 1.01-.558.219-.347.244-.782.066-1.152zM9.121 29.58l1.493-3.105c.077-.162.117-.338.117-.517V14.584c0-3.969 3.23-7.198 7.2-7.198 3.971 0 7.201 3.23 7.201 7.198v11.374c0 .179.04.355.118.517l1.492 3.105H9.122zM33.315 12.16l2.117-.382c-.835-4.705-3.593-8.916-7.568-11.55l-1.182 1.807c3.484 2.31 5.902 6 6.633 10.124zM9.182 2.035L8 .227C4.025 2.862 1.267 7.073.432 11.778l2.116.381c.732-4.124 3.15-7.814 6.634-10.124z" transform="translate(-.432 -.227)"/>
    </g>
</svg>
