<svg xmlns="http://www.w3.org/2000/svg" width="30" height="29" viewBox="0 0 30 29">
    <g fill="none" fill-rule="evenodd">
        <path fill="#FFF" d="M22.004 25.069c-.523 0-1.031.209-1.4.575-.368.365-.578.873-.578 1.39 0 .518.21 1.025.578 1.392.369.365.877.574 1.4.574.52 0 1.029-.209 1.397-.574.368-.367.582-.874.582-1.392 0-.517-.214-1.025-.582-1.39-.368-.366-.876-.575-1.397-.575m-10.923 0c-.52 0-1.031.209-1.4.575-.368.365-.578.873-.578 1.39 0 .518.21 1.025.578 1.392.369.365.88.574 1.4.574.52 0 1.029-.209 1.397-.574.368-.367.582-.874.582-1.392 0-.517-.214-1.025-.582-1.39-.368-.366-.876-.575-1.397-.575m16.863-13.115L24.69 22.24c-.229.722-.894 1.203-1.656 1.203H10.461c-.721 0-1.423-.447-1.675-1.119L3.996 9.436H1.217C.545 9.436 0 8.886 0 8.218 0 7.55.545 7 1.217 7h3.62c.505 0 .962.348 1.142.818l4.968 13.189h11.575l2.602-8.222H10.776c-.672 0-1.217-.55-1.217-1.218 0-.667.545-1.218 1.217-1.218h16.007c.387 0 .752.207.981.517.23.31.296.72.18 1.088"/>
    </g>
</svg>
