<svg xmlns="http://www.w3.org/2000/svg" width="70" height="50" viewBox="0 0 70 50">
    <g>
        <path d="M52.464 31.52c-5.018 0-9.1 4.082-9.1 9.1s4.082 9.101 9.1 9.101c5.02 0 9.101-4.083 9.101-9.1 0-5.019-4.082-9.101-9.1-9.101zm0 13.65c-2.509 0-4.55-2.04-4.55-4.55s2.041-4.55 4.55-4.55c2.51 0 4.55 2.04 4.55 4.55s-2.04 4.55-4.55 4.55zM21.389 31.52c-5.018 0-9.1 4.082-9.1 9.1s4.082 9.101 9.1 9.101 9.1-4.083 9.1-9.1c0-5.019-4.082-9.101-9.1-9.101zm0 13.65c-2.51 0-4.55-2.04-4.55-4.55s2.04-4.55 4.55-4.55c2.509 0 4.55 2.04 4.55 4.55s-2.04 4.55-4.55 4.55zM57 4.5L44.252 4.439 44.252 8.989 54.843 8.989 61.046 21.309 65.117 19.265z"/>
        <path d="M28.27 38.623H45.584V43.062H28.27zM12.98 38.623H5.097v4.439h7.883c1.256 0 2.274-.994 2.274-2.22 0-1.226-1.018-2.22-2.274-2.22zM69.523 24.706l-4.472-5.732c-.43-.552-1.093-.874-1.796-.874h-16.52L46.5 0H6.57v4.525h35.618v15.837c0 .833-.063 1.546-.188 2.138l20.142.124 3.311 4.245v11.668h-6.29c-1.256 0-2.273 1.013-2.273 2.262 0 1.25 1.018 2.263 2.273 2.263L70 43V26.094c0-.503-.168-.991-.477-1.388zM14.441 27.08L3.921 27.08 3.921 31.52 14.441 31.52zM19.779 18.201L.358 18.201.358 22.641 19.779 22.641z"/>
        <path d="M23.33 9.323L3.91 9.323 3.91 13.762 23.33 13.762z"/>
    </g>
</svg>
