<svg xmlns="http://www.w3.org/2000/svg" width="20" height="20" viewBox="0 0 20 20">
    <path fill="#A8B2C0" d="M14.376 0C12.662 0 11.057.785 10 2.097 8.943.785 7.338 0 5.624 0 2.523 0 0 2.523 0 5.624c0 2.435 1.455 5.256 4.325 8.382 2.212 2.41 4.619 4.276 5.303 4.79l.372.28.371-.28c.685-.514 3.092-2.38 5.304-4.79C18.545 10.88 20 8.06 20 5.624 20 2.523 17.477 0 14.376 0zm.387 13.17c-1.84 2.005-3.822 3.623-4.763 4.353-.94-.73-2.923-2.348-4.763-4.353-2.617-2.85-4-5.46-4-7.546 0-2.42 1.968-4.387 4.387-4.387 1.591 0 3.06.868 3.835 2.264l.541.976.541-.976c.774-1.396 2.244-2.264 3.835-2.264 2.42 0 4.387 1.968 4.387 4.387 0 2.086-1.383 4.695-4 7.546z"/>
</svg>
