<svg xmlns="http://www.w3.org/2000/svg" width="26" height="25" viewBox="0 0 26 25">
    <path fill="#FFF" d="M18.122 0c2.09 0 3.932.696 5.226 2.037 1.295 1.292 1.991 3.08 1.991 5.167V17.44c0 2.136-.696 3.974-2.04 5.266-1.294 1.242-3.086 1.938-5.227 1.938H7.918c-2.04 0-3.832-.646-5.176-1.938-1.394-1.341-2.09-3.18-2.09-5.316V7.204C.651 2.882 3.537 0 7.868 0zm.05 2.285H7.918c-1.493 0-2.787.448-3.633 1.292-.896.894-1.344 2.137-1.344 3.627V17.39c0 1.54.448 2.782 1.344 3.677.896.844 2.14 1.291 3.633 1.291h10.154c1.494 0 2.738-.447 3.634-1.291.896-.845 1.344-2.087 1.344-3.627h.1V7.204c0-1.44-.498-2.683-1.345-3.577-.895-.894-2.14-1.342-3.633-1.342zm-5.177 3.627c3.485 0 6.372 2.882 6.372 6.36s-2.838 6.36-6.372 6.36-6.37-2.833-6.37-6.36c0-3.528 2.886-6.36 6.37-6.36zm0 2.286c-2.24 0-4.081 1.838-4.081 4.074 0 2.235 1.842 4.074 4.081 4.074 2.24 0 4.082-1.839 4.082-4.074 0-2.236-1.842-4.074-4.082-4.074zm6.62-3.876c.798 0 1.444.646 1.444 1.441 0 .796-.646 1.441-1.444 1.441-.797 0-1.443-.645-1.443-1.44 0-.796.646-1.442 1.443-1.442z"/>
</svg>
