<svg xmlns="http://www.w3.org/2000/svg" width="20" height="23" viewBox="0 0 20 23">
    <path fill="#003274" d="M18.56 13.687l-1.636-1.637-7.368-7.367c-1.357-1.348-3.55-1.344-4.902.009-1.353 1.353-1.357 3.544-.009 4.902l7.367 7.37c.301.3.79.3 1.091 0 .302-.302.302-.79 0-1.092l-7.366-7.37c-.754-.753-.754-1.974 0-2.728.753-.753 1.974-.753 2.728 0l7.369 7.367 1.637 1.637c1.357 1.357 1.356 3.557 0 4.913-1.358 1.356-3.557 1.356-4.913-.001l-1.364-1.365-7.64-7.64-.546-.545C1.1 8.172 1.124 5.038 3.062 3.1 5 1.162 8.134 1.138 10.102 3.046l8.186 8.185c.195.195.479.271.745.2.267-.071.475-.28.546-.546.071-.266-.005-.55-.2-.745l-8.185-8.186c-2.564-2.552-6.71-2.547-9.267.01-2.558 2.558-2.563 6.704-.01 9.267l8.185 8.186 1.366 1.365c1.97 1.892 5.092 1.86 7.024-.072 1.931-1.931 1.962-5.053.069-7.023z"/>
</svg>
