<svg width="43" height="43" viewBox="0 0 43 43" fill="none" xmlns="http://www.w3.org/2000/svg">
<path fill-rule="evenodd" clip-rule="evenodd" d="M35.642 3.82201L39.178 7.35801L7.358 39.178L3.822 35.642L35.642 3.82201Z" fill="black"/>
<path fill-rule="evenodd" clip-rule="evenodd" d="M8.5 5.5C6.84315 5.5 5.5 6.84315 5.5 8.5C5.5 10.1569 6.84315 11.5 8.5 11.5C10.1569 11.5 11.5 10.1569 11.5 8.5C11.5 6.84315 10.1569 5.5 8.5 5.5ZM0.5 8.5C0.5 4.08172 4.08172 0.5 8.5 0.5C12.9183 0.5 16.5 4.08172 16.5 8.5C16.5 12.9183 12.9183 16.5 8.5 16.5C4.08172 16.5 0.5 12.9183 0.5 8.5Z" fill="black"/>
<path fill-rule="evenodd" clip-rule="evenodd" d="M34.5 31.5C32.8431 31.5 31.5 32.8431 31.5 34.5C31.5 36.1569 32.8431 37.5 34.5 37.5C36.1569 37.5 37.5 36.1569 37.5 34.5C37.5 32.8431 36.1569 31.5 34.5 31.5ZM26.5 34.5C26.5 30.0817 30.0817 26.5 34.5 26.5C38.9183 26.5 42.5 30.0817 42.5 34.5C42.5 38.9183 38.9183 42.5 34.5 42.5C30.0817 42.5 26.5 38.9183 26.5 34.5Z" fill="black"/>
</svg>
