<svg xmlns="http://www.w3.org/2000/svg" width="18" height="18" viewBox="0 0 18 18">
    <path fill="#003274" fill-rule="evenodd" d="M10.72 12.649c-2.984 0-5.41-2.425-5.41-5.405 0-2.98 2.426-5.405 5.41-5.405 2.983 0 5.41 2.424 5.41 5.405 0 2.98-2.427 5.405-5.41 5.405M3.44 7.244c0 1.678.577 3.223 1.544 4.453L.303 16.24c-.408.407-.403 1.061.01 1.462.205.2.472.298.74.298.27 0 .542-.103.748-.308l4.693-4.555c1.193.849 2.65 1.35 4.226 1.35 4.014 0 7.28-3.25 7.28-7.243C18 3.249 14.734 0 10.72 0 6.705 0 3.44 3.25 3.44 7.244z"/>
</svg>
