<svg xmlns="http://www.w3.org/2000/svg" width="25" height="28" viewBox="0 0 25 28">
    <path fill="#A8B2C0" d="M5 9.078c-2.757 0-5 2.208-5 4.922 0 2.714 2.243 4.922 5 4.922 1.503 0 2.853-.656 3.77-1.693l6.589 3.964c-.231.566-.359 1.184-.359 1.83C15 25.75 17.25 28 20 28c2.748 0 5-2.248 5-4.977 0-2.713-2.243-4.921-5-4.921-1.503 0-2.853.656-3.77 1.692L9.64 15.831C9.872 15.264 10 14.647 10 14s-.128-1.264-.359-1.83l6.589-3.964c.917 1.036 2.267 1.692 3.77 1.692 2.757 0 5-2.208 5-4.921C25 2.25 22.75 0 20 0c-2.748 0-5 2.248-5 4.977 0 .646.128 1.264.359 1.83L8.77 10.771C7.853 9.734 6.503 9.078 5 9.078zm15 10.664c1.838 0 3.333 1.472 3.333 3.281 0 1.809-1.526 3.336-3.333 3.336-1.807 0-3.333-1.527-3.333-3.336s1.495-3.28 3.333-3.28zm0-18.101c1.807 0 3.333 1.527 3.333 3.336S21.838 8.257 20 8.257s-3.333-1.471-3.333-3.28c0-1.809 1.526-3.336 3.333-3.336zM5 17.28c-1.838 0-3.333-1.472-3.333-3.281 0-1.81 1.495-3.281 3.333-3.281S8.333 12.19 8.333 14c0 1.81-1.495 3.281-3.333 3.281z"/>
</svg>
