<svg xmlns="http://www.w3.org/2000/svg" width="28" height="28" viewBox="0 0 28 28">
    <path fill="#FFF" fill-rule="evenodd" d="M24.113 18.686c-1.495-.296-3.06.163-4.162 1.265-1.102 1.102-1.561 2.668-1.265 4.162l-.948.948-14.8-14.8.949-.947c1.494.295 3.06-.163 4.162-1.265 1.102-1.101 1.56-2.667 1.265-4.162l.947-.948 14.8 14.8-.948.947zm3.53-1.808L11.123.356c-.476-.475-1.247-.475-1.722 0L7.085 2.672c-.343.343-.45.857-.272 1.308.32.811.13 1.732-.486 2.348-.615.615-1.537.806-2.347.485-.451-.177-.965-.07-1.308.272L.356 9.4c-.228.228-.356.537-.356.86 0 .323.128.633.356.861l16.521 16.522c.229.228.538.356.861.356.323 0 .633-.128.861-.356l2.316-2.316c.343-.343.45-.857.271-1.308-.32-.811-.129-1.732.486-2.347.616-.616 1.537-.807 2.348-.486.45.178.965.07 1.308-.272l2.315-2.316c.476-.475.476-1.246 0-1.721zM11.84 9.849l6.312 6.312-1.99 1.99-6.312-6.312 1.99-1.99zm-3.572 2.99l6.893 6.894c.276.276.638.414 1.001.414.362 0 .725-.138 1.001-.414l2.57-2.571c.268-.267.415-.623.415-1 0-.38-.147-.735-.414-1.002L12.84 8.268c-.267-.268-.623-.415-1.001-.415-.378 0-.734.147-1.001.415l-2.571 2.57c-.552.552-.551 1.45 0 2.002z"/>
</svg>
