<svg xmlns="http://www.w3.org/2000/svg" width="23" height="19" viewBox="0 0 23 19">
    <path fill="#FFF" fill-rule="evenodd" d="M22.663 2.689c-.811.36-1.683.602-2.6.71.935-.558 1.652-1.443 1.99-2.498-.874.518-1.842.894-2.873 1.097-.825-.878-2-1.427-3.302-1.427-2.498 0-4.524 2.022-4.524 4.517 0 .353.04.698.117 1.028-3.76-.188-7.094-1.985-9.326-4.718-.389.667-.612 1.443-.612 2.27 0 1.567.799 2.95 2.013 3.76-.742-.024-1.44-.227-2.05-.566v.058c0 2.187 1.56 4.012 3.63 4.428-.38.103-.78.158-1.193.158-.291 0-.575-.028-.851-.081.576 1.794 2.247 3.1 4.226 3.136-1.548 1.212-3.499 1.933-5.619 1.933-.365 0-.725-.021-1.079-.063 2.003 1.282 4.38 2.03 6.936 2.03 8.322 0 12.872-6.882 12.872-12.85 0-.195-.004-.39-.013-.584.884-.637 1.651-1.432 2.258-2.338z"/>
</svg>
