<svg width="21" height="23" viewBox="0 0 21 23" fill="none" xmlns="http://www.w3.org/2000/svg">
<path fill-rule="evenodd" clip-rule="evenodd" d="M10.333 2C9.36045 2 8.42774 2.38634 7.74004 3.07404C7.05234 3.76174 6.666 4.69445 6.666 5.667C6.666 6.63955 7.05234 7.57227 7.74004 8.25996C8.42774 8.94766 9.36045 9.334 10.333 9.334C10.8146 9.334 11.2914 9.23915 11.7363 9.05487C12.1812 8.87058 12.5854 8.60047 12.926 8.25996C13.2665 7.91945 13.5366 7.5152 13.7209 7.0703C13.9052 6.6254 14 6.14856 14 5.667C14 5.18544 13.9052 4.7086 13.7209 4.2637C13.5366 3.8188 13.2665 3.41455 12.926 3.07404C12.5854 2.73353 12.1812 2.46342 11.7363 2.27913C11.2914 2.09485 10.8146 2 10.333 2ZM6.32583 1.65983C7.38859 0.597057 8.83002 0 10.333 0C11.0772 0 11.8141 0.146581 12.5017 0.431375C13.1892 0.716168 13.8139 1.1336 14.3402 1.65983C14.8664 2.18606 15.2838 2.81078 15.5686 3.49833C15.8534 4.18589 16 4.9228 16 5.667C16 6.4112 15.8534 7.14811 15.5686 7.83567C15.2838 8.52322 14.8664 9.14794 14.3402 9.67417C13.8139 10.2004 13.1892 10.6178 12.5017 10.9026C11.8141 11.1874 11.0772 11.334 10.333 11.334C8.83002 11.334 7.3886 10.7369 6.32583 9.67417C5.26306 8.61141 4.666 7.16998 4.666 5.667C4.666 4.16402 5.26306 2.72259 6.32583 1.65983ZM5.667 16C4.69445 16 3.76173 16.3863 3.07404 17.074C2.38634 17.7617 2 18.6945 2 19.667V21H18.6579C18.6321 19.9389 18.5333 18.8307 18.1579 17.9118C17.9207 17.3312 17.5892 16.8726 17.1284 16.5532C16.6703 16.2357 16.0042 16 15 16H5.667ZM1.65983 15.6598C2.72259 14.5971 4.16402 14 5.667 14H15C16.3293 14 17.4133 14.3172 18.2678 14.9095C19.1196 15.4999 19.6632 16.3081 20.0093 17.1554C20.6676 18.7666 20.6673 20.6801 20.667 21.9297C20.667 21.9534 20.667 21.9768 20.667 22C20.667 22.5523 20.2193 23 19.667 23H1C0.447715 23 0 22.5523 0 22V19.667C0 18.164 0.597057 16.7226 1.65983 15.6598Z" fill="white"/>
</svg>
