<svg xmlns="http://www.w3.org/2000/svg" width="26" height="15" viewBox="0 0 26 15">
    <path fill="#FFF" fill-rule="evenodd" d="M24.08 14.583l-3.361.047s-.722.142-1.674-.507c-1.257-.859-2.442-3.092-3.366-2.8-.936.296-.907 2.304-.907 2.304s.007.429-.207.657c-.232.25-.686.299-.686.299h-1.505s-3.32.2-6.243-2.83C2.943 8.452.128 1.899.128 1.899s-.162-.43.014-.638c.198-.234.738-.25.738-.25L4.477.989s.338.056.58.233c.2.147.312.42.312.42s.582 1.463 1.352 2.785C8.223 7.01 8.923 7.574 9.432 7.298c.744-.404.521-3.652.521-3.652s.014-1.178-.374-1.703c-.3-.407-.867-.526-1.117-.559-.203-.027.13-.495.56-.704.648-.316 1.79-.333 3.14-.32 1.053.011 1.356.076 1.768.175 1.239.298.819 1.448.819 4.207 0 .883-.16 2.127.48 2.538.275.177.95.027 2.635-2.82.798-1.35 1.398-2.936 1.398-2.936s.13-.283.333-.403c.208-.125.489-.087.489-.087l3.784-.023s1.138-.134 1.322.376c.193.536-.425 1.788-1.97 3.838-2.54 3.366-2.823 3.051-.715 4.998 2.014 1.86 2.432 2.765 2.5 2.877.834 1.375-.925 1.483-.925 1.483"/>
</svg>
