<svg xmlns="http://www.w3.org/2000/svg" width="26" height="18" viewBox="0 0 26 18">
    <path fill="#FFF" fill-rule="evenodd" d="M25.055 2.846C24.76 1.75 23.895.886 22.8.59 20.798.043 12.79.043 12.79.043S4.784.043 2.782.57C1.707.865.821 1.75.527 2.846 0 4.847 0 8.999 0 8.999s0 4.172.527 6.153c.295 1.095 1.159 1.96 2.255 2.254 2.022.548 10.009.548 10.009.548s8.007 0 10.01-.527c1.095-.295 1.959-1.159 2.254-2.254.527-2.002.527-6.153.527-6.153s.02-4.173-.527-6.174zM10.24 12.834v-7.67L16.9 8.998l-6.659 3.835z"/>
</svg>
