<svg xmlns="http://www.w3.org/2000/svg" xmlns:xlink="http://www.w3.org/1999/xlink" width="260" height="62" viewBox="0 0 260 62">
    <defs>
        <path id="prefix__a" d="M0 61.621L259.555 61.621 259.555 0.018 0 0.018z"/>
    </defs>
    <g fill="none" fill-rule="evenodd" transform="translate(0 .171)">
        <path fill="#FEFEFE" d="M9.669 6.123h1.184c.752 0 1.085-.358 1.085-1.184 0-1.16-.74-1.122-1.085-1.122H9.669v2.306zm1.504-3.984c1.48 0 2.689.654 2.689 2.788 0 2.688-1.838 2.873-2.726 2.873H9.67v2.973H7.868V2.139h3.305zM19.892 6.456c0-2.306-.715-2.886-1.653-2.886-.937 0-1.652.58-1.652 2.886 0 2.578.913 2.886 1.652 2.886.74 0 1.653-.308 1.653-2.886m-5.23 0c0-1.295.31-4.563 3.577-4.563 3.269 0 3.577 3.268 3.577 4.563s-.308 4.563-3.577 4.563c-3.268 0-3.576-3.268-3.576-4.563M27.871 8.232h.074c1.542 0 1.715-1.135 1.715-1.862 0-1.295-.666-1.863-1.554-1.863h-.235v3.725zm-1.504-3.725h-.235c-.887 0-1.554.568-1.554 1.863 0 .727.173 1.862 1.715 1.862h.074V4.507zm1.652-2.86v1.22h.185c3.084 0 3.355 2.775 3.355 3.503 0 .777-.271 3.502-3.355 3.502h-.185v1.221h-1.8v-1.22h-.185c-3.083 0-3.355-2.726-3.355-3.503 0-.728.272-3.503 3.355-3.503h.185v-1.22h1.8zM37.997 5.568L37.997 7.159 34.617 7.159 34.617 9.095 38.539 9.095 38.539 10.773 32.817 10.773 32.817 2.139 38.44 2.139 38.44 3.817 34.617 3.817 34.617 5.568zM45.988 7.726c-.21 2.159-1.172 3.293-3.231 3.293-2.134 0-3.466-1.22-3.466-4.403 0-2.133.604-4.723 3.416-4.723 2.936 0 3.182 2.392 3.195 3.182h-1.764c-.123-1.221-.654-1.505-1.357-1.505-.555 0-1.566.234-1.566 2.972 0 2.529 1.048 2.8 1.616 2.8.752 0 1.22-.37 1.368-1.616h1.789zM53.486 7.726c-.21 2.159-1.172 3.293-3.231 3.293-2.134 0-3.466-1.22-3.466-4.403 0-2.133.604-4.723 3.416-4.723 2.935 0 3.182 2.392 3.194 3.182h-1.763c-.123-1.221-.654-1.505-1.357-1.505-.555 0-1.566.234-1.566 2.972 0 2.529 1.048 2.8 1.615 2.8.753 0 1.222-.37 1.37-1.616h1.788zM59.085 2.139L60.873 2.139 60.873 10.773 59.072 10.773 59.072 5.223 56.482 10.773 54.694 10.773 54.694 2.139 56.495 2.139 56.495 7.628zM67.532 6.456c0-2.306-.715-2.886-1.652-2.886-.938 0-1.653.58-1.653 2.886 0 2.578.913 2.886 1.653 2.886s1.652-.308 1.652-2.886m-5.229 0c0-1.295.309-4.563 3.577-4.563s3.576 3.268 3.576 4.563-.308 4.563-3.576 4.563c-3.268 0-3.577-3.268-3.577-4.563M72.675 10.773L70.874 10.773 70.874 2.139 72.675 2.139 72.675 5.383 75.006 5.383 75.006 2.139 76.806 2.139 76.806 10.773 75.006 10.773 75.006 7.061 72.675 7.061zM81.924 7.69l-.814-3.232-.814 3.231h1.628zm.1-5.55l2.589 8.633h-1.887l-.444-1.616h-2.343l-.444 1.616h-1.888l2.59-8.634h1.826z"/>
        <path fill="#FEFEFE" d="M91.531 10.773h-1.8V3.817h-1.776l-.05 3.01c-.024 1.652-.172 3.995-2.713 3.995-.197 0-.407-.012-.604-.05V9.084c.123.025.246.037.37.037.592 0 1.196-.148 1.233-2.861l.05-4.12h5.29v8.634zM95.17 9.095h1.196c.357 0 1.073-.024 1.073-1.073 0-.999-.518-1.073-1.221-1.073h-1.049v2.146zm0-3.823h1.529c2.207 0 2.664 1.517 2.664 2.824 0 1.777-.74 2.677-2.677 2.677H93.37V2.139h1.8v3.133zM102.482 10.773L100.682 10.773 100.682 2.139 102.482 2.139 102.482 5.383 104.813 5.383 104.813 2.139 106.614 2.139 106.614 10.773 104.813 10.773 104.813 7.061 102.482 7.061z"/>
        <mask id="prefix__b" fill="#fff">
            <use xlink:href="#prefix__a"/>
        </mask>
        <path fill="#FEFEFE" d="M114.79 10.773h1.801V2.139h-1.8v8.634zm-4.538-1.678h1.196c.358 0 1.073-.024 1.073-1.073 0-.999-.518-1.073-1.221-1.073h-1.048v2.146zm0-3.823h1.53c2.207 0 2.663 1.517 2.663 2.824 0 1.776-.74 2.677-2.676 2.677h-3.318V2.139h1.8v3.133zM120.747.018c0 .308.135.826.777.826.64 0 .777-.518.777-.826h1.27c-.012 1.53-1.579 1.702-2.047 1.702-.469 0-2.035-.173-2.048-1.702h1.27zm2.072 2.121h1.788v8.634h-1.8v-5.55l-2.59 5.55h-1.789V2.139h1.8v5.489l2.59-5.489zM131.427 9.095h1.233c.727 0 1.135-.21 1.135-.974 0-1.024-.679-1.098-1.098-1.098h-1.27v2.072zm0-3.749h1.578c.654 0 2.714.062 2.714 2.824 0 .703-.124 2.603-2.714 2.603h-3.379V2.139h5.537v1.678h-3.736v1.53zM140.38 7.69l-.814-3.232-.814 3.231h1.628zm.099-5.55l2.59 8.633h-1.887l-.444-1.616h-2.344l-.444 1.616h-1.887l2.59-8.634h1.826zM150.098 7.726c-.21 2.159-1.172 3.293-3.231 3.293-2.134 0-3.466-1.22-3.466-4.403 0-2.133.604-4.723 3.416-4.723 2.936 0 3.182 2.392 3.195 3.182h-1.764c-.123-1.221-.653-1.505-1.357-1.505-.555 0-1.566.234-1.566 2.972 0 2.529 1.048 2.8 1.616 2.8.752 0 1.22-.37 1.369-1.616h1.788zM155.339 2.139L157.399 2.139 154.624 6.086 157.559 10.773 155.413 10.773 153.156 6.555 153.107 6.555 153.107 10.773 151.306 10.773 151.306 2.139 153.107 2.139 153.107 5.765 153.156 5.765zM163.479 5.568L163.479 7.159 160.099 7.159 160.099 9.095 164.021 9.095 164.021 10.773 158.299 10.773 158.299 2.139 163.923 2.139 163.923 3.817 160.099 3.817 160.099 5.568zM164.415 3.817L164.415 2.139 170.409 2.139 170.409 3.817 168.313 3.817 168.313 10.773 166.512 10.773 166.512 3.817zM173.246 9.095h1.233c.728 0 1.135-.21 1.135-.974 0-1.024-.679-1.098-1.098-1.098h-1.27v2.072zm0-3.749h1.578c.654 0 2.714.062 2.714 2.824 0 .703-.124 2.603-2.714 2.603h-3.379V2.139h5.538v1.678h-3.737v1.53zM183.74 6.456c0-2.306-.715-2.886-1.652-2.886-.937 0-1.653.58-1.653 2.886 0 2.578.913 2.886 1.653 2.886s1.653-.308 1.653-2.886m-5.23 0c0-1.295.309-4.563 3.577-4.563s3.576 3.268 3.576 4.563-.308 4.563-3.576 4.563c-3.268 0-3.577-3.268-3.577-4.563M193.261 10.773h-1.8V3.817h-1.776l-.05 3.01c-.025 1.652-.172 3.995-2.713 3.995-.197 0-.407-.012-.604-.05V9.084c.123.025.246.037.37.037.592 0 1.196-.148 1.233-2.861l.05-4.12h5.29v8.634zM196.9 9.095h1.196c.357 0 1.073-.024 1.073-1.073 0-.999-.519-1.073-1.222-1.073H196.9v2.146zm0-3.823h1.528c2.208 0 2.665 1.517 2.665 2.824 0 1.777-.74 2.677-2.677 2.677H195.1V2.139h1.8v3.133zM204.212 10.773L202.412 10.773 202.412 2.139 204.212 2.139 204.212 5.383 206.543 5.383 206.543 2.139 208.344 2.139 208.344 10.773 206.543 10.773 206.543 7.061 204.212 7.061zM216.52 10.773h1.801V2.139h-1.8v8.634zm-4.538-1.678h1.196c.358 0 1.073-.024 1.073-1.073 0-.999-.518-1.073-1.221-1.073h-1.048v2.146zm0-3.823h1.529c2.208 0 2.664 1.517 2.664 2.824 0 1.776-.74 2.677-2.676 2.677h-3.318V2.139h1.8v3.133zM222.477.018c0 .308.135.826.777.826.641 0 .777-.518.777-.826h1.27c-.012 1.53-1.579 1.702-2.047 1.702-.469 0-2.035-.173-2.048-1.702h1.27zm2.072 2.121h1.788v8.634h-1.8v-5.55l-2.59 5.55h-1.789V2.139h1.8v5.489l2.59-5.489zM235.389 2.139L237.448 2.139 234.673 6.086 237.609 10.773 235.463 10.773 233.206 6.555 233.157 6.555 233.157 10.773 231.356 10.773 231.356 2.139 233.157 2.139 233.157 5.765 233.206 5.765z" mask="url(#prefix__b)"/>
        <path fill="#FEFEFE" d="M244.527 10.773h-1.8V3.817h-1.776l-.05 3.01c-.025 1.652-.172 3.995-2.713 3.995-.197 0-.407-.012-.604-.05V9.084c.123.025.246.037.37.037.591 0 1.196-.148 1.233-2.861l.05-4.12h5.29v8.634zM250.138 2.14h1.924l-2.244 6.869c-.58 1.776-1.406 1.924-2.233 1.924-.394 0-.752-.062-1.122-.173V9.046c.123.062.42.173.79.173.591 0 .752-.605.788-.839l-2.552-6.24h2.109l1.418 4.205 1.122-4.206zM254.603 9.095h1.233c.728 0 1.135-.21 1.135-.974 0-1.024-.679-1.098-1.098-1.098h-1.27v2.072zm0-3.749h1.578c.654 0 2.714.062 2.714 2.824 0 .703-.124 2.603-2.714 2.603h-3.379V2.139h5.538v1.678h-3.737v1.53zM15.841 48.55L15.841 23.476 22.331 23.476 22.331 48.55 25.844 48.55 25.577 61.621 19.797 61.621 19.797 54.596.325 54.596.325 23.476 6.816 23.476 6.816 48.55zM51.14 43.616c-.757 7.78-4.225 11.87-11.65 11.87-7.69 0-12.492-4.402-12.492-15.872 0-7.691 2.179-17.027 12.315-17.027 10.581 0 11.47 8.625 11.515 11.47H44.47c-.444-4.401-2.356-5.424-4.89-5.424-2 0-5.646.845-5.646 10.714 0 9.114 3.779 10.092 5.824 10.092 2.712 0 4.401-1.333 4.935-5.823h6.446zM68.921 23.476L76.345 23.476 66.342 37.703 76.923 54.596 69.188 54.596 61.052 39.392 60.874 39.392 60.874 54.596 54.383 54.596 54.383 23.476 60.874 23.476 60.874 36.547 61.052 36.547z" mask="url(#prefix__b)"/>
        <path fill="#FEFEFE" d="M90.304 43.482L87.37 31.834l-2.934 11.648h5.868zm.356-20.006l9.336 31.12h-6.802l-1.6-5.824h-8.448l-1.6 5.824h-6.802l9.336-31.12h6.58zM117.204 30.452L117.071 30.452 117.204 32.13 117.204 54.558 113.251 54.558 113.251 23.653 118.758 23.653 125.777 48.245 132.794 23.653 138.302 23.653 138.302 54.558 134.349 54.558 134.349 32.13 134.482 30.452 134.349 30.452 127.42 54.558 124.133 54.558zM154.602 51.998c6.352 0 7.507-7.991 7.507-12.892 0-5.386-1.422-12.892-7.507-12.892s-7.507 7.506-7.507 12.892c0 4.9 1.155 12.892 7.507 12.892m0-29.272c8.262 0 11.638 7.638 11.638 16.38 0 16.07-9.773 16.38-11.638 16.38-1.865 0-11.637-.31-11.637-16.38 0-8.742 3.375-16.38 11.637-16.38M191.111 44.316c-.444 4.37-2.398 11.17-10.394 11.17-8.572 0-11.592-7.903-11.592-15.85 0-3.841.355-16.91 11.503-16.91 4.22 0 9.595 1.766 10.172 10.464h-3.953c-.266-2.826-1.421-6.976-6.219-6.976-7.195 0-7.373 10.552-7.373 13.245 0 8.786 3.687 12.539 7.596 12.539 3.775 0 6.085-3.665 6.307-7.682h3.953zM209.366 23.653L213.807 23.653 202.57 37.958 214.563 54.559 209.81 54.559 199.416 39.459 199.416 54.559 195.464 54.559 195.464 23.653 199.416 23.653 199.416 36.81zM221.002 51.07h5.73c2.354 0 5.507-.485 5.507-5.474 0-3.797-1.732-5.342-5.507-5.342h-5.73v10.817zm0-14.304h5.508c3.287 0 4.708-1.722 4.708-4.812 0-2.12-.667-4.813-4.575-4.813h-5.641v9.625zm6.352-13.113c5.374 0 7.906 3.223 7.906 7.86 0 3.045-1.644 5.827-4.62 6.578v.22c2.222.398 5.597 2.12 5.597 7.638 0 5.475-2.843 8.61-9.239 8.61h-9.949V23.652h10.305zM252.316 43.08l-3.776-13.864-3.776 13.864h7.552zm-10.66 11.479h-4.132l8.928-30.906h4.176l8.927 30.906h-4.13l-2.222-7.992h-9.327l-2.22 7.992zM0 2.139L0 10.773 1.801 10.773 1.801 3.817 4.23 3.817 4.23 10.773 6.031 10.773 6.031 2.139z" mask="url(#prefix__b)"/>
    </g>
</svg>
