<svg xmlns="http://www.w3.org/2000/svg" xmlns:xlink="http://www.w3.org/1999/xlink" width="81" height="119" viewBox="0 0 81 119">
    <defs>
        <path id="prefix__a" d="M0 0L80.581 0 80.581 118.521 0 118.521z"/>
    </defs>
    <g fill="none" fill-rule="evenodd">
        <mask id="prefix__b" fill="#fff">
            <use xlink:href="#prefix__a"/>
        </mask>
        <path fill="#FEFEFE" d="M61.445 61.746l1.313-6.31 2.102 6.31h-3.415zm2.682-10.215H60.97L57.147 67.79h2.82l.84-3.473h4.765l1.209 3.473h2.792L64.127 51.53zm-30.81 2.298c1.027 0 1.81.426 2.35 1.273.357.56.571 1.207.644 1.939h2.624c-.045-1.655-.58-3.024-1.607-4.105-1.057-1.12-2.401-1.678-4.034-1.678-2.164 0-3.78.945-4.852 2.832-.852 1.504-1.279 3.409-1.279 5.718 0 2.359.41 4.27 1.225 5.727 1.027 1.845 2.634 2.767 4.818 2.767 1.72 0 3.11-.592 4.165-1.776 1.021-1.123 1.542-2.554 1.564-4.29h-2.667c-.212 2.274-1.279 3.409-3.203 3.409-1.115 0-1.93-.693-2.447-2.081-.365-.98-.547-2.174-.547-3.583 0-4.101 1.082-6.152 3.245-6.152zM53.93 51.53h-3.184l-4.536 6.49h-.787v-6.49h-2.754V67.79h2.754v-7.197h1.092l4.634 7.197h3.31l-5.826-8.832 5.297-7.426zm-30.158 0h-2.756l-.718 13.688h-5.301l.72-13.688h-2.754l-.856 16.258h9.213l-.2 3.768h2.756l.334-6.338h-1.159l.72-13.688zm6.466-12.315l10.053-6.592 10.05 6.592-3.185-11.561 9.392-7.486-12.016-.554L40.29 8.396l-4.243 11.219-12.018.554 9.394 7.486-3.186 11.561zm48.505 24.6v.028c0 .628-.01 1.25-.03 1.864-.005.2-.018.398-.026.597-.016.412-.03.823-.054 1.228-.014.227-.034.447-.052.673-.025.372-.051.746-.083 1.11-.021.229-.048.45-.072.675-.038.357-.07.717-.113 1.07-.03.223-.064.442-.093.662-.046.349-.091.7-.144 1.045-.034.217-.073.429-.108.644-.058.342-.111.687-.174 1.024-.039.205-.082.405-.123.61-.067.341-.133.683-.207 1.019-.041.198-.091.39-.135.585-.078.337-.153.676-.235 1.007-.048.187-.1.369-.149.556-.086.332-.172.669-.267.997-.05.179-.107.354-.159.532-.097.329-.192.659-.296.983-.052.17-.112.336-.168.505-.106.326-.212.654-.325.974-.054.156-.113.307-.17.46-.119.33-.235.659-.362.984-.056.144-.114.282-.17.424-.13.33-.26.657-.393.982-.059.137-.12.27-.18.407-.138.323-.276.646-.42.961-.062.136-.126.266-.19.4-.146.312-.29.627-.442.934-.06.125-.126.248-.19.373-.154.311-.31.622-.47.927-.063.116-.128.23-.19.347-.165.308-.33.615-.499.915-.063.112-.127.217-.19.327-.173.301-.348.606-.527.901-.063.107-.127.21-.192.314-.18.295-.361.592-.548.882-.063.099-.13.195-.191.293-.19.291-.378.582-.571.868l-.193.277c-.196.284-.392.57-.591.85-.063.088-.128.172-.192.26-.2.28-.405.56-.611.833-.063.083-.128.163-.19.247-.21.275-.42.546-.631.814l-.19.232c-.214.268-.43.534-.647.795-.064.076-.127.147-.19.22-.22.263-.438.521-.663.776l-.187.211c-.225.252-.449.507-.676.753-.061.067-.122.13-.184.196-.23.248-.458.496-.69.737l-.186.19c-.232.24-.464.48-.696.71-.061.06-.121.12-.184.179-.234.235-.471.466-.707.692l-.177.166c-.24.227-.478.453-.718.674l-.176.158c-.238.218-.48.436-.723.65l-.18.156c-.239.21-.48.42-.72.625l-.178.146c-.242.205-.481.406-.723.603l-.178.143c-.24.196-.48.389-.72.578l-.184.141c-.237.185-.475.371-.712.55-.06.046-.121.09-.18.136-.236.178-.473.356-.708.528-.06.045-.122.087-.182.131-.236.172-.469.34-.703.504-.058.044-.12.085-.179.127-.234.163-.464.325-.694.48-.06.042-.119.081-.178.123l-.683.46c-.063.038-.123.078-.183.117-.222.147-.448.292-.669.435l-.189.118-.648.41c-.063.038-.127.074-.19.113-.21.13-.424.259-.63.385l-.195.115-.608.36c-.068.037-.134.076-.202.115-.194.11-.39.224-.582.332l-.206.114c-.188.107-.374.208-.556.31-.071.039-.14.073-.208.111-.18.096-.358.195-.534.287-.07.038-.138.072-.209.11l-.502.261c-.078.039-.15.077-.226.117-.154.079-.313.159-.465.233-.078.04-.152.076-.23.114-.144.072-.288.146-.428.213-.083.04-.16.075-.238.114l-.394.188-.236.11-.36.168-.26.115c-.1.049-.205.095-.304.14l-.261.115c-.092.041-.445.192-.529.23-.08.033-.417.177-.509.214-.059.027-.362.15-.453.186-.046.019-.334.135-.428.17-.027.012-.398.155-.41.16-.64.244-.998.36-.998.36s-.359-.116-.998-.36c-.013-.005-.386-.148-.41-.16-.093-.035-.383-.151-.428-.17-.09-.036-.395-.16-.455-.186l-.506-.214c-.085-.038-.44-.189-.532-.23l-.26-.116c-.1-.044-.202-.09-.306-.139-.085-.038-.169-.074-.257-.115-.115-.055-.24-.111-.36-.168l-.236-.11c-.13-.06-.264-.126-.394-.188-.08-.04-.158-.075-.238-.114-.14-.067-.285-.14-.43-.213l-.23-.114c-.152-.074-.308-.154-.464-.233l-.224-.117c-.166-.084-.335-.174-.504-.262-.07-.037-.138-.07-.211-.11-.174-.091-.352-.19-.532-.286-.07-.038-.137-.072-.206-.11-.184-.103-.37-.204-.558-.311l-.207-.114c-.19-.108-.385-.221-.583-.332-.066-.04-.132-.078-.199-.116-.2-.116-.404-.238-.608-.359-.065-.04-.128-.075-.194-.115-.208-.126-.421-.255-.632-.385-.063-.04-.125-.075-.19-.114-.213-.134-.43-.27-.648-.41l-.19-.117c-.219-.143-.444-.288-.667-.435l-.182-.118c-.227-.15-.455-.305-.684-.46l-.18-.121c-.229-.156-.46-.318-.691-.48-.061-.043-.122-.084-.183-.128-.232-.164-.466-.332-.7-.504-.06-.044-.122-.086-.182-.131-.236-.172-.472-.35-.708-.528-.062-.047-.121-.09-.181-.137-.236-.178-.474-.364-.713-.549-.06-.048-.122-.092-.182-.14-.24-.19-.48-.383-.72-.58l-.179-.142c-.242-.197-.482-.398-.721-.603l-.18-.146c-.24-.205-.48-.415-.72-.625l-.18-.156c-.24-.214-.483-.432-.724-.65l-.174-.158c-.24-.221-.478-.447-.72-.674-.058-.055-.116-.111-.177-.166-.236-.226-.47-.457-.706-.692l-.184-.18c-.231-.23-.463-.47-.695-.709l-.188-.19c-.23-.241-.46-.489-.69-.737-.06-.065-.123-.13-.182-.196-.227-.246-.452-.5-.676-.753l-.188-.211c-.222-.255-.442-.513-.663-.775-.063-.074-.126-.145-.187-.22-.22-.262-.434-.528-.65-.796l-.187-.232c-.213-.268-.423-.54-.633-.814-.062-.084-.127-.164-.19-.247-.205-.273-.408-.552-.613-.833-.062-.088-.127-.172-.19-.26-.2-.28-.395-.566-.593-.85-.063-.093-.13-.184-.192-.277-.193-.286-.382-.577-.57-.868-.064-.098-.13-.194-.193-.293-.186-.29-.367-.587-.547-.882-.065-.105-.13-.207-.193-.314-.178-.295-.352-.6-.525-.9-.063-.11-.129-.216-.19-.328-.17-.3-.335-.607-.5-.915-.063-.117-.128-.231-.19-.347-.16-.305-.315-.616-.47-.927-.063-.125-.129-.248-.19-.373-.15-.307-.296-.622-.444-.934-.062-.134-.126-.264-.188-.4-.143-.315-.282-.638-.42-.961-.059-.138-.12-.27-.178-.407-.135-.325-.265-.653-.396-.982-.055-.142-.115-.28-.17-.424-.125-.325-.243-.654-.36-.983-.057-.154-.116-.305-.171-.46-.111-.321-.22-.65-.326-.975-.055-.17-.114-.335-.167-.505-.102-.324-.2-.654-.297-.983-.052-.178-.108-.353-.158-.532-.093-.328-.179-.665-.267-.997-.049-.187-.1-.37-.147-.556-.085-.33-.16-.67-.237-1.007-.045-.195-.093-.387-.136-.585-.073-.336-.14-.678-.205-1.02-.041-.204-.086-.404-.122-.609-.065-.337-.12-.682-.176-1.024-.034-.215-.075-.427-.107-.644-.054-.344-.097-.696-.144-1.045-.03-.22-.066-.439-.093-.661-.041-.354-.076-.714-.114-1.071-.023-.226-.05-.446-.07-.675-.035-.364-.06-.738-.085-1.11-.017-.226-.037-.446-.05-.673-.026-.405-.04-.816-.057-1.228-.008-.199-.02-.396-.027-.597-.017-.615-.027-1.236-.027-1.864v-.028c-.008-.592-.095-10.23 2.014-21.258.45-.012.896-.039 1.342-.07.109-.008.22-.017.329-.027.437-.037.873-.08 1.306-.137.052-.005.102-.015.152-.02 6.91-.93 13.34-4.283 18.888-9.473.094-.085.185-.17.278-.258.169-.161.337-.326.503-.49.086-.084.173-.166.257-.249.179-.178.354-.359.53-.542.072-.072.145-.146.218-.222.197-.206.392-.416.588-.628l.147-.153c.232-.255.464-.513.691-.774l.152-.176-.99 3.591-.412.406c-.163.16-.327.32-.492.477l-.292.272c-5.505 5.149-11.73 8.424-18.22 9.65l-1.718.231C4.924 55.271 5.086 64.843 5.086 64.843c0 10.598 2.69 19.398 6.654 26.569l1.19 1.96c.4.608.904 1.338 1.522 2.162l1.255 1.61c1.62 1.996 3.772 4.353 6.522 6.81l1.708 1.473c4.191 3.483 9.585 7.055 16.354 9.987 1.38-.598 2.696-1.222 3.964-1.868l1.819-.96c7.534-4.122 12.944-8.915 16.593-12.9l1.514-1.72c2.164-2.562 3.516-4.633 4.17-5.72l1.222-2.206c3.558-6.913 5.922-15.264 5.922-25.197 0 0 .163-9.57-2.022-20.877-.008 0-1.73-.233-1.73-.233-6.489-1.227-12.707-4.501-18.21-9.648l-.29-.272c-.166-.158-.331-.318-.494-.477 0 0-.39-.382-.413-.407l-.99-3.59.152.176c.23.261.46.519.693.774l.145.153c.196.212.392.422.59.628.071.076.145.15.217.222.176.183.35.364.53.542l.257.25c.165.163.333.328.501.49.093.087.185.172.28.257 5.547 5.19 11.978 8.543 18.888 9.473.05.005.1.015.152.02.432.057.869.1 1.305.137.11.01.22.02.331.026.445.032.891.06 1.339.07 2.111 11.028 2.025 20.667 2.017 21.26zM64.383 84.18l-.003-.004c-.364-.344-.735-.68-1.115-1.007l-.103-.09c-.364-.312-.735-.616-1.113-.914l-.147-.114c-.377-.293-.76-.58-1.15-.857l-.13-.09c-.406-.286-.818-.567-1.237-.836l-.203-.124c-.633-.4-1.292-.788-1.955-1.149-.302-.163-.609-.322-.915-.477l-.124-.064c-.285-.143-.574-.28-.865-.414-.158-.073-.317-.146-.477-.216l-.332-.146c-3.538-1.526-7.272-2.436-11.1-2.702-5.01-.35-9.937.405-14.643 2.24-.428.166-.852.342-1.27.526-.143.062-.283.13-.426.195-.273.125-.548.248-.817.38-.167.08-.331.167-.497.251-.24.121-.48.242-.718.368-.175.095-.345.193-.517.29-.225.125-.447.25-.668.38-.176.102-.349.211-.522.317-.212.13-.424.26-.633.395-.174.113-.347.23-.52.345-.202.136-.404.273-.603.412-.172.121-.341.245-.51.369-.196.143-.389.286-.58.432-.168.129-.334.259-.5.39-.187.15-.373.3-.558.455-.162.134-.324.27-.484.408-.182.157-.36.317-.538.476-.157.142-.313.283-.467.428-.176.164-.35.332-.521.5-.15.147-.3.292-.446.441-.172.174-.34.353-.509.531-.14.15-.281.297-.42.448-.169.187-.335.38-.5.568-.13.15-.26.297-.387.447-.173.205-.339.415-.507.625-.113.142-.23.283-.34.427-.184.239-.363.482-.542.727-.087.12-.178.237-.264.358-.244.344-.481.694-.714 1.048-.015.024-.061.088-.067.098-.01-.022-.023-.043-.035-.066-.134-.261-.262-.526-.393-.793-.093-.187-.186-.374-.277-.563-.127-.266-.249-.537-.372-.807-.09-.196-.18-.39-.266-.587-.12-.269-.236-.542-.35-.817-.087-.204-.172-.41-.258-.617-.11-.271-.218-.547-.325-.823-.083-.215-.166-.43-.248-.647-.1-.276-.201-.554-.299-.831-.08-.227-.159-.454-.236-.68-.094-.278-.184-.557-.275-.838-.076-.236-.15-.474-.222-.712-.084-.28-.168-.56-.25-.844-.07-.247-.138-.497-.207-.749-.077-.28-.15-.56-.222-.844-.066-.261-.129-.524-.192-.787-.066-.281-.132-.563-.196-.848-.06-.273-.117-.549-.173-.827-.057-.28-.116-.56-.168-.844-.054-.29-.104-.58-.155-.873-.049-.28-.097-.56-.141-.841-.047-.304-.088-.612-.132-.92-.04-.277-.079-.552-.114-.834-.04-.324-.075-.654-.11-.982-.028-.27-.06-.538-.084-.81-.034-.354-.059-.713-.086-1.07-.018-.256-.041-.507-.058-.764-.024-.407-.04-.82-.057-1.233-.01-.214-.023-.425-.029-.64-.02-.633-.03-1.272-.03-1.916l-.001-.104-.001-.536v-.28l.004-.33.006-.366c0-.063.006-.333.006-.405l.013-.452c.002-.083.01-.412.014-.494l.017-.529.023-.57.014-.326.012-.272.018-.352.015-.292c.005-.12.013-.242.02-.366.005-.101.01-.204.017-.307l.023-.386.02-.319.027-.406.023-.328.031-.428.026-.343c.01-.143.023-.287.034-.434l.03-.365.038-.448.034-.37c.014-.155.027-.308.043-.466l.037-.388c.015-.157.03-.313.047-.474.012-.128.027-.26.04-.39l.053-.496c.014-.13.03-.262.043-.392l.06-.515.046-.38c.02-.185.043-.368.065-.554l.046-.356c.026-.196.05-.39.077-.585.015-.12.032-.24.048-.359.029-.203.056-.406.086-.611.006-.058.016-.116.024-.174.117-.817.247-1.65.388-2.497l.046-.287.113-.645c.02-.119.04-.236.062-.353.138-.024.278-.048.418-.074 5.895-1.093 11.639-3.863 16.763-8.063l1.822-1.547-2.458 8.92c-.466 1.698.358 2.294 1.835 1.327l13.358-8.764 13.357 8.764c1.477.967 2.303.371 1.835-1.327l-2.459-8.92 1.823 1.547c5.124 4.2 10.868 6.971 16.764 8.064.135.026.27.049.405.073 0 .008.003.016.005.024.42 2.351.742 4.615.987 6.714l.002.004.095.83.008.08.081.77.013.112c.025.244.047.484.07.722l.014.14c.023.23.042.459.063.684l.014.148.056.66.011.145.05.641.011.137c.016.207.03.411.044.613l.01.141.038.576.01.15.032.552.008.131.03.53c0 .044.004.087.006.13.01.17.017.338.024.501l.027.596c0 .04.003.079.004.118l.017.442c0 .036.003.073.004.108.005.144.01.283.013.419l.003.094.012.39v.085l.01.356.001.085.006.317c0 .028 0 .058.002.087l.003.272v.084l.003.234.002.28-.001.524-.001.104c0 .628-.012 1.247-.03 1.862-.007.204-.017.406-.025.61-.017.407-.035.814-.058 1.217-.014.238-.033.474-.05.71-.025.362-.053.723-.085 1.081-.022.247-.047.493-.073.737-.035.34-.073.68-.114 1.017-.03.25-.062.497-.094.743-.044.33-.092.657-.142.982-.036.244-.073.487-.113.728-.055.327-.113.65-.173.972-.042.234-.084.468-.13.699-.066.337-.139.67-.21 1.002-.046.208-.089.42-.135.625-.112.492-.23.976-.355 1.457-.055.213-.115.422-.172.634-.09.333-.18.667-.276.995-.07.24-.145.474-.218.712-.082.267-.164.534-.25.798-.08.247-.163.49-.248.735-.083.248-.168.493-.254.736-.09.25-.182.499-.275.745-.085.231-.174.459-.262.687-.096.25-.197.5-.298.747-.088.219-.18.435-.27.65-.107.25-.213.497-.32.742-.092.208-.187.411-.28.616-.113.247-.226.497-.343.74l-.037.078c-1.226-1.698-2.605-3.279-4.13-4.721zm-8.205 11.018l.06.03-.063-.03h.003c-.594-.294-1.188-.61-1.782-.94l-.107-.06-.02-.012c-.281-.158-.56-.32-.839-.485-.04-.025-.08-.048-.121-.07-.309-.186-.616-.374-.92-.567-4-2.523-7.356-5.508-9.45-8.402-.403-.559-.756-1.115-1.051-1.655 1.463-.176 2.92-.267 4.36-.272.287 0 .573.002.859.008.572.012 1.141.037 1.704.076.467.033.929.076 1.386.126l.085.01c.44.05.876.108 1.308.174l.13.02c.421.065.839.14 1.251.222l.149.03c.408.082.813.173 1.212.27l.147.038c.4.1.794.206 1.184.32l.133.04c.392.118.782.242 1.165.376.033.01.066.022.1.035.393.137.78.281 1.162.434.015.007.03.012.045.02.792.318 1.556.67 2.292 1.051l.039.02c.353.184.7.377 1.04.575l.09.052c.328.193.649.395.964.601l.113.074c.309.205.611.417.907.634.038.03.078.057.116.085.294.22.58.444.86.675l.106.088c.28.234.556.475.823.72l.079.076c.273.255.54.516.796.784.014.013.026.028.038.04.267.28.526.565.776.858 0 0-.038.073-.116.212l-.701 1.168c-.707 1.125-1.895 2.882-3.646 5.072-2.072-.508-4.355-1.37-6.666-2.52zM40.914 79.644c.003-.043.009-.083.014-.126.008-.074.02-.149.034-.22l.03-.125c.018-.07.04-.14.065-.205.012-.035.023-.069.037-.1.042-.098.088-.191.143-.277.626-.988 2.204-1.447 4.442-1.29.86.06 1.822.216 2.861.462l.172.044c.236.056.475.122.716.188l.073.02c2.748.78 5.741 2.108 8.653 3.843 1.037.659 2.042 1.383 3.002 2.162l.001.001c-3.587-1.788-7.775-2.888-12.207-3.197-2.555-.177-5.202-.086-7.866.273l-.04-.165c-.014-.057-.029-.112-.04-.168l-.02-.106c-.014-.075-.027-.149-.037-.222l-.002-.014-.014-.102c-.004-.035-.005-.07-.008-.103-.006-.068-.014-.135-.016-.2v-.006c-.002-.01 0-.021 0-.033-.004-.114 0-.227.007-.334zm-6.362 6.777c-.327-.512-.66-1.016-.989-1.491 2.035-.7 4.13-1.243 6.234-1.612.39.814.899 1.66 1.517 2.512 2.24 3.095 5.79 6.264 10 8.921.226.142.453.282.678.42l.239.141.439.262.29.167c.13.075.258.148.388.22.104.06.208.118.313.176l.362.198c.11.06.221.118.331.177l.341.178c.115.06.233.12.348.178.107.055.212.107.318.16l.365.18.289.136c.13.063.262.125.392.186l.22.1c.767.349 1.527.665 2.277.949.024.008.046.016.068.026.18.067.356.13.533.193l.103.037c.174.061.348.12.52.178l.105.035c.174.057.347.112.52.166l.09.027c.178.055.356.108.532.158l.021.007c-.01.008-.016.017-.026.028-.3.338-.616.68-.943 1.03-.045.049-.094.097-.14.147-.273.289-.555.582-.846.878l-.297.297c-.26.261-.529.524-.803.79l-.311.3c-.375.358-.759.716-1.16 1.078l-1.687 1.473c-.425.359-.87.718-1.32 1.077-.126.102-.255.203-.384.303-.402.317-.813.632-1.235.946-.07.053-.137.106-.208.156-.467.347-.95.69-1.442 1.033-.16.114-.325.226-.49.34-.41.28-.829.56-1.254.837-.123.08-.24.159-.364.239-.518.333-1.052.662-1.595.989-.182.11-.367.218-.55.328-.169.1-.343.195-.513.292l-.065-.203c-.36-1.142-.738-2.292-1.136-3.449-.098-.282-.193-.563-.293-.844-2.893-8.223-6.368-15.697-9.782-21.05zm-9.066 6.817v-.021l-.018-.195c-.018-.235-.039-.468-.065-.694 0-.007 0-.013-.002-.019-.08-.72-.194-1.403-.34-2.045-.01-.05-.022-.102-.034-.153 0-.006-.002-.012-.004-.018l-.04-.178-.001-.005c-.064-.249-.131-.494-.206-.73 2.137-1.372 4.44-2.56 6.849-3.527.401.565.818 1.185 1.235 1.84 3.338 5.232 6.741 12.561 9.584 20.639.148.419.291.838.433 1.256.097.284.191.567.286.85.041.128.085.255.127.383.105.32.207.641.31.96.03.088.058.176.085.265.103.32.204.641.304.961l.05.161c-.274.147-.551.291-.828.438-.288.15-.571.301-.865.448-.673.34-1.351.673-2.055.998-6.106-2.819-11.027-6.16-14.905-9.425l-1.06-.924c1-4.04 1.393-7.974 1.16-11.265zm13.422-12.973l.013.132c.011.125.027.25.047.376l.02.13c.03.168.064.337.105.51-2.28.42-4.554 1.037-6.761 1.832-1.376-1.768-2.667-3.037-3.848-3.777.338-.145.676-.284 1.007-.414 2.543-.99 5.167-1.647 7.833-1.965.01 0 .02-.003.032-.005.133-.014.266-.024.399-.037.76-.08 1.524-.139 2.29-.162-.19.197-.359.41-.502.636-.025.037-.047.078-.07.116-.02.034-.04.067-.058.101-.024.042-.045.084-.065.125l-.027.054c-.004.01-.01.018-.014.026l-.015.033c-.02.04-.038.083-.055.125-.02.04-.036.082-.051.125l-.046.119-.004.014-.007.02c-.016.046-.032.092-.045.137-.014.045-.028.09-.04.135l-.041.168-.001.002-.005.023c-.009.038-.014.074-.021.11l-.031.165c-.003.038-.009.074-.016.111 0 .017-.003.035-.005.049l-.003.042-.01.09-.009.099c-.006.092-.01.185-.012.28-.002.155.005.314.016.475zM21.03 84.736c-.247-.065-.501-.106-.755-.124h-.02c.022-.021.046-.039.068-.059.847-.726 1.731-1.41 2.65-2.044.941-.651 1.918-1.251 2.925-1.795.09-.025.197-.034.311-.025.59.04 1.907.53 4.17 3.315h-.002c-2.232.928-4.377 2.037-6.379 3.303-.761-1.385-1.76-2.25-2.968-2.57zm-4.777 8.999c-.132.143-.26.287-.388.431-.143.16-.287.32-.427.48-.01.013-.023.024-.033.037l-.002-.001c-.337-.48-.636-.922-.89-1.31l-.677-1.131c.007-.012.014-.024.022-.034.232-.386.475-.765.723-1.14l.153-.23c.263-.39.532-.774.811-1.15 1.644-2.078 3.274-3.174 4.591-3.082.123.009.25.031.378.063.69.185 1.318.789 1.817 1.751-.359.252-.711.51-1.06.773-.036.028-.072.057-.109.084-.296.226-.589.455-.877.69-.096.076-.19.154-.285.233-.224.185-.448.372-.668.562-.121.105-.24.209-.359.315-.188.166-.375.334-.559.504-.134.123-.266.247-.397.371-.165.155-.325.311-.486.47-.14.137-.282.276-.42.417-.144.146-.287.295-.428.443-.144.15-.289.302-.43.454zm.372 2.564c.135-.161.275-.32.414-.478.11-.124.216-.25.326-.373.136-.15.276-.298.414-.446.123-.133.246-.264.372-.395.133-.14.27-.277.406-.414.14-.14.28-.28.422-.419.131-.126.262-.251.395-.376.159-.15.32-.298.483-.446.123-.113.248-.226.374-.337.181-.161.367-.32.554-.479.115-.096.228-.193.343-.288.218-.18.44-.359.663-.534.092-.073.181-.145.275-.218.32-.247.645-.492.978-.732.052.207.1.42.145.64.013.06.023.124.034.186.03.16.062.32.088.486.012.08.022.162.035.243.022.152.044.303.062.46l.028.279c.017.15.031.299.044.452.008.1.015.204.02.306.011.15.021.3.029.451.005.11.008.222.012.334.005.149.01.297.012.448.002.119.003.238.003.359 0 .147 0 .295-.002.444l-.008.384-.015.437c-.005.137-.012.274-.019.413l-.027.423-.031.444-.036.402c-.015.16-.03.322-.047.484l-.042.365c-.02.178-.04.355-.064.535-.013.102-.027.203-.042.305-.027.201-.056.404-.087.608l-.03.187c-.13.83-.29 1.673-.479 2.523-.283-.269-.56-.536-.828-.802-.076-.073-.146-.145-.218-.217-.21-.207-.417-.415-.616-.62-.101-.103-.197-.205-.295-.306-.167-.175-.332-.347-.493-.518-.101-.106-.199-.213-.297-.318-.153-.167-.304-.33-.451-.493-.094-.103-.186-.205-.276-.307-.149-.167-.293-.33-.435-.494-.081-.093-.164-.187-.243-.28-.152-.177-.3-.351-.445-.524l-.186-.22c-.202-.245-.399-.485-.587-.72l-.641-.834.009-.01zm2.625-77.677l15.551-.716 5.49-14.518 5.49 14.518 15.552.716-12.16 9.688 4.124 14.96-13.005-8.532-13.006 8.533 4.123-14.961-12.159-9.688zm59.283 23.593l-.28-1.45-1.48-.038c-.359-.008-.756-.029-1.259-.066-.098-.007-.193-.013-.302-.023-.457-.04-.856-.082-1.222-.128 0 0-.125-.018-.167-.022-6.308-.855-12.482-3.965-17.87-9.005-.085-.077-.168-.156-.252-.234-.16-.153-.319-.308-.478-.466-.054-.055-.258-.25-.258-.25-.166-.166-.331-.336-.507-.52l-.126-.127-1.8-1.928L63.74 19.03c1.38-1.1 1.063-2.066-.703-2.146l-15.974-.736-5.637-14.911c-.622-1.649-1.644-1.649-2.266 0l-5.641 14.911-15.972.736c-1.767.08-2.082 1.047-.702 2.148l11.203 8.926-1.86 1.99-.071.074c-.167.172-.333.343-.5.512 0 0-.202.194-.257.249-.157.155-.316.31-.485.47-.081.078-.163.155-.261.244-5.374 5.027-11.55 8.136-17.857 8.991l-.162.022c-.367.046-.767.088-1.24.13-.094.008-.188.014-.294.021-.503.037-.888.058-1.252.066l-1.48.036-.279 1.452C-.087 53.382-.005 63.26.002 63.827v.017c0 .621.009 1.247.03 1.919.003.135.01.27.016.404l.01.21.008.162c.013.37.027.744.05 1.102.01.15.021.301.033.451l.034.475c.022.31.044.616.072.91.013.153.029.3.046.446l.056.528c.028.278.056.554.09.838.02.153.04.305.063.456l.03.22.024.184c.042.3.08.6.126.891.02.148.047.293.072.44l.071.421c.048.292.096.584.149.86.026.147.055.291.085.436l.04.196.033.165c.059.3.116.601.18.893l.09.391c.02.072.036.144.051.217l.052.226c.064.273.126.547.192.814.032.126.065.247.098.368l.111.419c.072.276.144.55.218.812.035.123.07.244.108.365l.08.272c.094.312.186.626.286.944.034.106.068.211.105.316l.145.436c.085.258.17.517.265.788.032.092.065.183.1.274.025.063.082.22.082.22.119.332.238.665.362.985.036.094.073.187.111.278l.1.25c.123.31.247.622.376.933.04.095.082.187.123.281l.062.139c.143.336.287.67.436.999.036.08.075.159.112.238l.086.182.07.149c.126.272.254.54.383.807l.2.389c.16.324.321.646.49.968l.103.189c.028.052.057.103.093.173l.094.172c.14.26.28.519.42.77.045.078.091.154.137.231l.096.166c.169.293.337.587.512.88l.25.405c.172.28.341.559.519.836.041.06.194.294.194.294.195.3.39.602.592.9.04.06.083.121.125.179l.074.108c.203.294.404.587.613.88l.303.415c.176.24.35.48.53.72l.099.126.096.125.017.023c.212.274.422.548.635.818l.208.259c.219.27.437.54.651.792.045.056.09.11.136.163l.062.073c.228.27.453.535.692.81l.253.283c.211.238.424.475.623.692l.117.127.083.088c.235.255.471.509.723.773l.18.182c.24.248.48.495.72.734l.188.186c.243.239.483.477.726.71l.034.032.156.143.065.064c.225.213.45.424.67.625.057.054.116.107.18.164.248.226.496.45.755.68l.175.152c.248.217.497.433.744.643l.183.153c.248.209.495.415.75.624l.178.143c.247.2.492.399.749.6l.24.187c.226.176.45.35.673.518l.208.158c.237.178.474.356.701.521l.188.136c.243.178.486.354.712.511.054.04.11.078.162.115l.033.022c.24.17.48.337.71.494l.344.232c.186.124.37.25.554.37l.183.122c.227.146.456.296.697.45 0 0 .145.094.198.125l.659.417.186.113c.218.132.434.265.648.392l.3.18c.177.103.35.207.525.31l.809.46.206.115c.19.107.38.213.573.318l.306.165c.152.082.303.164.458.246.076.042.292.154.292.154l.444.231.195.1.19.098.322.16.291.146c.132.064.262.13.372.182.086.043.168.082.257.122l.41.198c.084.04.162.074.245.112l.362.17.263.12.29.13.287.127c.101.046.204.09.29.127 0 0 .452.195.513.22.096.041.187.08.27.113l.192.08.293.118s.332.135.425.17l.463.179c.662.253 1.047.38 1.062.384l.573.187.572-.187c.015-.004.397-.13 1.061-.383l.455-.176c.098-.037.395-.157.44-.176.095-.037.188-.075.283-.114l.194-.081c.09-.038.18-.074.273-.114.056-.024.114-.048.171-.074l.335-.144c.097-.041.201-.085.295-.128.088-.038.48-.212.577-.259l.273-.123.052-.025.3-.14.247-.113.65-.313c.116-.054.234-.113.355-.174 0 0 .25-.123.322-.16.16-.077.323-.16.483-.243l.023-.011c.066-.036.129-.068.196-.102l.02-.008c.164-.085.722-.38.722-.38l.396-.21.354-.191.8-.444c.133-.075.268-.153.402-.231l.406-.23.822-.488c.213-.128.43-.26.643-.391l.197-.12c.187-.116.374-.234.56-.352l.094-.06.21-.133c.226-.142.456-.294.69-.447l.178-.116c.182-.12.367-.246.551-.37l.172-.115c.057-.038.114-.076.171-.117.235-.16.473-.325.718-.498l.183-.129c.238-.168.477-.34.72-.517l.18-.13c.231-.168.464-.344.698-.52l.058-.044.105-.077.054-.042c.242-.184.486-.374.717-.552l.208-.163c.244-.192.491-.39.727-.582l.19-.153c.25-.205.498-.413.733-.61l.197-.165c.246-.21.495-.425.74-.64l.187-.162c.251-.222.5-.447.735-.663l.046-.041c.05-.043.098-.089.142-.128.25-.228.494-.46.747-.698l.183-.173c.242-.233.485-.471.72-.705l.192-.189c.242-.239.482-.486.714-.726l.199-.203c.234-.244.465-.494.71-.758l.187-.202c.237-.254.468-.516.702-.78l.057-.063c.05-.056.098-.11.132-.152.197-.224.392-.452.586-.681l.168-.197.128-.15c.226-.271.45-.546.684-.84l.183-.224c.214-.27.425-.545.636-.82l.214-.28c.213-.282.426-.573.634-.86l.066-.093c.046-.06.09-.121.131-.177.207-.29.411-.586.61-.876l.076-.109.126-.182c.199-.294.392-.593.598-.909.03-.047.06-.094.092-.141l.094-.143c.157-.244.312-.495.464-.746l.177-.286c.044-.071.09-.143.126-.206.165-.27.325-.55.483-.826 0 0 .223-.381.26-.452.157-.273.308-.553.458-.833l.259-.477c.165-.316.328-.638.489-.963l.08-.156c.037-.073.076-.146.114-.225.122-.247.24-.499.358-.752l.17-.362c.044-.093.089-.185.125-.267.144-.314.28-.633.417-.953l.088-.2c.038-.085.078-.172.121-.274.106-.255.208-.512.31-.77l.168-.42c.033-.084.069-.169.1-.255.121-.306.232-.618.345-.93l.029-.083.058-.153c.042-.112.084-.225.121-.332.104-.295.203-.596.3-.896l.038-.111.058-.175c.04-.118.08-.238.116-.35.08-.248.152-.496.226-.749l.08-.273.063-.205c.034-.115.07-.229.102-.341.091-.32.176-.65.26-.977l.073-.27c.033-.12.067-.24.099-.369.068-.275.13-.555.197-.837l.096-.417c.033-.133.064-.267.088-.386.063-.29.121-.585.18-.878l.077-.386c.03-.14.057-.28.082-.422.048-.252.09-.506.133-.762l.084-.499c.025-.152.052-.305.076-.46.04-.266.078-.535.113-.803l.037-.279.037-.26c.02-.138.04-.278.057-.422.034-.262.06-.527.088-.792l.03-.31.025-.228c.016-.159.035-.315.048-.472.035-.378.06-.763.087-1.132l.014-.198c.015-.167.028-.333.04-.513.02-.353.035-.714.048-1.074l.009-.182.008-.207c.007-.14.016-.279.019-.41.018-.6.027-1.217.028-1.882v-.052c.006-.536.093-10.427-2.047-21.616z" mask="url(#prefix__b)"/>
    </g>
</svg>
