<svg xmlns="http://www.w3.org/2000/svg" width="220" height="59" viewBox="0 0 220 59">
    <g fill="#FFF">
        <path d="M12.58 47.686L12.58 27.363 17.846 27.363 17.846 47.686 20.692 47.686 20.479 58.282 15.798 58.282 15.798 52.589 0 52.589 0 27.363 5.266 27.363 5.266 47.686zM42.309 43.687c-.252 2.595-1.044 5.623-2.955 7.425-1.01.936-2.955 2.2-6.486 2.2-2.378 0-4.54-.541-6.056-1.659-2.161-1.62-4.072-5.117-4.072-11.208 0-3.063.468-6.559 1.91-9.227 2.163-3.999 5.515-4.575 8.075-4.575 2.487 0 4.502.585 5.91 1.62 2.197 1.624 3.35 4.681 3.422 7.677h-5.151c-.182-1.694-.542-2.487-.723-2.773-.828-1.443-2.127-1.624-3.244-1.624-2.739 0-3.494 2.048-3.927 3.531-.461 1.678-.675 3.415-.634 5.155-.055 1.663.189 3.323.72 4.9.47 1.443 1.371 3.28 4.001 3.28 1.37 0 2.522-.433 3.28-1.873.468-.877.647-2.308.72-2.849h5.21zM58.239 27.363L64.259 27.363 56.15 38.91 64.727 52.604 58.455 52.604 51.861 40.279 51.718 40.279 51.718 52.604 46.452 52.604 46.452 27.363 51.718 27.363 51.718 37.959 51.861 37.959zM78.387 27.363l7.568 25.226h-5.503l-1.299-4.721h-6.846l-1.296 4.721h-5.526l7.568-25.226h5.334zm-.275 16.227l-2.379-9.443-2.393 9.443h4.772zM100.118 32.912L100.009 32.912 100.118 34.281 100.118 52.589 96.899 52.589 96.899 27.363 101.367 27.363 107.074 47.438 112.768 27.363 117.235 27.363 117.235 52.589 114.017 52.589 114.017 34.281 114.125 32.912 114.017 32.912 108.394 52.589 105.729 52.589zM122.966 32.18c2.2-5.07 6.05-5.558 8.036-5.558 1.987 0 5.851.504 8.037 5.585.83 1.91 1.407 4.432 1.407 7.785 0 2.27-.216 5.082-1.37 7.82-1.983 4.68-5.406 5.558-8.074 5.558s-6.088-.877-8.071-5.558c-1.153-2.738-1.37-5.559-1.37-7.82 0-3.367.577-5.89 1.405-7.811zm2.595 13.297c1.044 3.678 3.136 5.012 5.441 5.012 2.306 0 4.389-1.334 5.442-5.012.464-1.8.683-3.653.65-5.511-.011-1.987-.29-3.963-.829-5.875-1.26-4.096-3.712-4.648-5.266-4.648-1.553 0-3.999.54-5.265 4.648-.537 1.916-.81 3.897-.814 5.886-.036 1.858.18 3.712.64 5.512v-.012zM161.89 44.228c-.216 2.27-1.047 4.903-2.381 6.524-1.8 2.197-4.178 2.595-6.053 2.595-3.964 0-6.126-2.048-7.425-4.254-1.694-2.881-1.98-5.944-1.98-8.686 0-2.925.292-6.772 2.047-9.692 1.3-2.162 3.531-4.096 7.279-4.096 2.925 0 4.613 1.115 5.266 1.621 1.91 1.513 2.811 3.93 2.99 6.919h-3.218c-.074-.72-.293-2.235-.878-3.315-.685-1.26-1.946-2.378-4.18-2.378-1.405 0-3.459.585-4.828 3.604-.9 1.98-1.152 5.044-1.152 7.206 0 2.27.468 5.008 1.33 6.729.864 1.72 2.452 3.51 4.83 3.51 1.551 0 2.956-.684 4.038-2.525.637-1.152 1.006-2.433 1.08-3.747l3.235-.015zM177.024 27.363L180.628 27.363 171.512 39.038 181.243 52.589 177.387 52.589 168.952 40.264 168.952 52.589 165.734 52.589 165.734 27.363 168.952 27.363 168.952 38.102zM192.126 27.363c1.802 0 3.28.254 4.613 1.515 1.55 1.477 1.802 3.315 1.802 4.68 0 1.803-.503 3.28-1.659 4.39-.565.59-1.291 1.003-2.088 1.187v.181c.988.165 1.91.602 2.665 1.261.939.828 1.875 2.305 1.875 4.974 0 2.925-1.153 4.68-2.378 5.693-1.443 1.19-3.028 1.334-5.117 1.334h-8.075V27.362h8.362zm-5.152 10.704h4.467c1.01 0 2.235-.108 3.101-1.334.486-.775.725-1.68.685-2.595 0-.293-.038-1.945-.831-2.882-.503-.614-1.405-1.047-2.847-1.047h-4.575v7.858zm0 11.676h4.648c1.188 0 2.595-.073 3.567-1.334.722-.971.792-2.379.792-3.136 0-.758-.07-2.268-.936-3.277-.866-1.01-1.837-1.082-3.423-1.082h-4.648v8.829zM205.317 52.59h-3.353l7.244-25.228h3.387l7.244 25.227h-3.35l-1.802-6.52h-7.56l-1.81 6.52zm8.65-9.362l-3.065-11.325-3.063 11.316 6.129.009zM3.32 8.888h2.633c1.296 0 2.47.164 3.417 1.19.948 1.027 1.11 2.408 1.11 3.511 0 .878-.144 2.2-1.089 3.166-.989 1.009-2.428 1.17-3.438 1.17H.32V3.537h9.236v2.8H3.32v2.55zm0 6.252h2.048c.635 0 1.17-.082 1.501-.454.252-.338.389-.748.39-1.17.018-.448-.096-.892-.328-1.276-.392-.535-.99-.555-1.501-.555H3.32v3.455zM18.914 3.537l4.32 14.4h-3.147l-.74-2.695h-3.909l-.74 2.694H11.55l4.321-14.399h3.043zm-.164 9.256l-1.358-5.388-1.357 5.388h2.715zM35.35 12.872c-.144 1.48-.586 3.218-1.686 4.237-.585.535-1.688 1.255-3.704 1.255-1.357 0-2.592-.31-3.455-.948-1.234-.925-2.325-2.926-2.325-6.396 0-1.755.269-3.744 1.09-5.265 1.235-2.285 3.149-2.613 4.608-2.613 1.46 0 2.572.328 3.374.924 1.255.928 1.913 2.674 1.954 4.389H32.28c-.026-.552-.166-1.092-.412-1.586-.474-.822-1.214-.924-1.852-.924-1.562 0-1.995 1.17-2.241 2.015-.27.95-.4 1.935-.386 2.923-.034.949.103 1.896.404 2.797.266.822.78 1.872 2.281 1.872.785.063 1.529-.362 1.873-1.07.222-.512.365-1.055.421-1.61h2.981zM44.442 3.537L47.876 3.537 43.248 10.119 48.145 17.936 44.565 17.936 40.802 10.915 40.718 10.915 40.718 17.936 37.716 17.936 37.716 3.537 40.718 3.537 40.718 9.587 40.802 9.587zM58.367 9.256L58.367 11.91 52.733 11.91 52.733 15.128 59.274 15.128 59.274 17.925 49.734 17.925 49.734 3.537 59.116 3.537 59.116 6.337 52.739 6.337 52.739 9.262zM60.611 6.337L60.611 3.537 70.608 3.537 70.608 6.337 67.112 6.337 67.112 17.936 64.107 17.936 64.107 6.337zM75.277 8.888h2.633c1.296 0 2.469.164 3.414 1.19.945 1.027 1.112 2.408 1.112 3.511 0 .878-.144 2.2-1.092 3.166-.985 1.009-2.425 1.17-3.434 1.17h-5.635V3.537h9.236v2.8h-6.234v2.55zm0 6.252h2.048c.638 0 1.17-.082 1.503-.454.253-.338.39-.748.39-1.17.018-.448-.096-.892-.328-1.276-.392-.535-.989-.555-1.504-.555h-2.118l.009 3.455zM85.481 15.552c-.73-1.499-1.097-3.148-1.07-4.815-.027-1.666.34-3.315 1.07-4.813 1.296-2.448 3.218-2.797 4.895-2.797 1.676 0 3.6.349 4.897 2.797.729 1.498 1.095 3.147 1.068 4.813.027 1.666-.34 3.316-1.068 4.815-1.296 2.446-3.218 2.797-4.897 2.797-1.68 0-3.599-.351-4.895-2.797zm6.808-.907c.433-.556.842-1.603.842-3.908 0-1.194-.184-3.063-.842-3.93-.478-.56-1.177-.883-1.913-.883-.737 0-1.436.323-1.914.884-.658.877-.842 2.735-.842 3.929 0 2.305.412 3.352.842 3.908.47.574 1.172.907 1.914.907.741 0 1.443-.333 1.913-.907zM108.786 17.936h-3.002v-11.6h-2.963l-.082 5.018c-.02 1.378-.082 2.612-.413 3.704-.268 1.04-.95 1.925-1.89 2.448-.657.35-1.393.526-2.138.512-.364.001-.728-.026-1.088-.082V15.12c.203.039.41.06.617.062.458.029.904-.153 1.211-.495.658-.699.825-2.2.846-4.277l.081-6.872h8.824l-.003 14.4zM114.836 8.777h2.551c1.273 0 2.364.187 3.247 1.111.585.618 1.194 1.73 1.194 3.599 0 2.048-.781 3.025-.986 3.27-.878 1.05-2.077 1.194-3.478 1.194h-5.533V3.537h3.005v5.24zm0 6.377h1.995c.638 0 1.047-.04 1.399-.453.286-.385.424-.86.389-1.337.038-.502-.115-.999-.428-1.393-.392-.43-.947-.41-1.606-.41h-1.755l.006 3.593zM127.281 17.936L124.277 17.936 124.277 3.537 127.281 3.537 127.281 8.949 131.169 8.949 131.169 3.537 134.171 3.537 134.171 17.936 131.169 17.936 131.169 11.746 127.281 11.746zM140.218 8.777h2.255c1.276 0 2.364.187 3.25 1.111.586.618 1.194 1.73 1.194 3.599 0 2.048-.784 3.025-.989 3.27-.877 1.05-2.077 1.194-3.475 1.194h-5.246V3.537h3.002l.009 5.24zm0 6.377h1.708c.638 0 1.05-.04 1.399-.453.288-.384.427-.859.392-1.337.033-.497-.122-.99-.433-1.378-.39-.43-.945-.41-1.603-.41h-1.463v3.578zm10.985-11.602v14.384h-3.001V3.537l3.001.015zM161.571 3.537h2.984v14.4h-3.004V9.501l.082-1.232h-.062l-.374 1.15-3.967 8.516h-2.981V3.537h3.001v8.311l-.082 1.255h.041l.392-1.152 3.97-8.414zM158.116 0c-.006.345.096.682.293.965.239.295.61.45.989.413.377.038.748-.118.986-.413.209-.278.322-.617.324-.965h2.118c-.007.442-.128.874-.35 1.255-.282.596-.783 1.06-1.4 1.296-.536.182-1.097.28-1.664.293-.567-.013-1.13-.111-1.667-.293-.616-.236-1.117-.7-1.399-1.296-.22-.382-.34-.814-.348-1.255h2.118zM179.119 3.537L182.553 3.537 177.925 10.119 182.819 17.936 179.241 17.936 175.476 10.915 175.394 10.915 175.394 17.936 172.39 17.936 172.39 3.537 175.394 3.537 175.394 9.587 175.476 9.587zM194.937 17.936h-3.005v-11.6h-2.96l-.082 5.018c-.02 1.378-.085 2.612-.413 3.704-.371 1.17-.945 1.913-1.892 2.448-.658.35-1.394.526-2.139.512-.365.001-.73-.026-1.091-.082V15.12c.203.039.41.06.617.062.46.03.906-.153 1.214-.495.658-.699.822-2.2.843-4.277l.082-6.872h8.826v14.4zM204.255 3.537h3.218l-3.745 11.46c-.218.83-.618 1.603-1.17 2.26-.802.878-1.644.949-2.548.949-.635-.003-1.267-.101-1.873-.293v-2.855c.413.192.862.292 1.317.292.353.025.692-.138.892-.43.204-.29.345-.62.413-.968l-4.26-10.415h3.51l2.365 7.021 1.88-7.021zM212.051 8.888h2.633c1.296 0 2.47.164 3.414 1.19.945 1.027 1.112 2.408 1.112 3.511 0 .878-.143 2.2-1.091 3.166-.986 1.009-2.428 1.17-3.435 1.17h-5.637V3.537h9.236v2.8h-6.232v2.55zm0 6.252h2.048c.638 0 1.17-.082 1.501-.454.254-.337.392-.748.392-1.17.02-.449-.096-.893-.33-1.276-.39-.535-.986-.555-1.501-.555h-2.118l.008 3.455z"/>
    </g>
</svg>
