<svg xmlns="http://www.w3.org/2000/svg" xmlns:xlink="http://www.w3.org/1999/xlink" viewBox="0 0 69 104">
  <defs/>
  <defs>
    <path id="a" d="M0 .415h68.472v102.688H0z"/>
  </defs>
  <g fill="none" fill-rule="evenodd">
    <g transform="translate(0 .481)">
      <mask id="b" fill="#fff">
        <use xlink:href="#a"/>
      </mask>
      <path fill="#023E87" d="M34.236 103.103c2.551-.833 4.96-1.964 7.312-3.234a58.057 58.057 0 008.41-5.504c5.036-3.981 9.345-8.76 12.513-14.343a45.041 45.041 0 004.996-13.37c.893-4.407 1.117-8.595.96-13.168-.196-5.676-.862-11.122-1.93-16.697-3.6-.09-6.062-.361-9.671-1.833-4.356-1.777-8.04-4.609-11.196-8.02l9.495-7.59c2.267-1.817 1.432-4.383-1.47-4.513l-12.599-.584-4.446-11.8c-.199-.53-.453-.962-.758-1.289a2.395 2.395 0 00-.669-.51A2.046 2.046 0 0033.29.647a2.452 2.452 0 00-.67.511c-.304.327-.559.76-.757 1.289l-4.447 11.8-12.598.584c-2.902.13-3.738 2.696-1.47 4.514l9.495 7.59c-3.157 3.41-6.842 6.242-11.196 8.019-3.61 1.472-6.072 1.743-9.672 1.833C.907 42.362.24 47.808.046 53.484c-.157 4.573.067 8.76.96 13.167a45.045 45.045 0 004.995 13.371c3.168 5.582 7.477 10.362 12.513 14.343a57.929 57.929 0 008.411 5.504c2.353 1.27 4.76 2.401 7.311 3.234" mask="url(#b)"/>
    </g>
    <path fill="#FEFEFE" d="M35.04 69.5c.534-.844 1.876-1.237 3.78-1.103 3.57.25 7.769 2.19 10.612 3.89.883.564 1.74 1.184 2.56 1.85-3.052-1.526-6.617-2.466-10.39-2.73a32.762 32.762 0 00-6.693.233c-.24-.888-.196-1.625.131-2.14zm-1.822 2.409c-1.94.36-3.875.886-5.752 1.566-1.173-1.512-2.27-2.596-3.277-3.23.29-.121.578-.242.858-.351a26.941 26.941 0 018.983-1.854c-1.027 1.061-1.155 2.48-.812 3.869zm-16.03 2.73a27.064 27.064 0 014.801-3.328.78.78 0 01.265-.022c.503.035 1.624.452 3.548 2.832a36.351 36.351 0 00-5.428 2.82c-.625-1.142-1.795-2.302-3.186-2.302zm20.396 24.7c-1.066.55-2.243 1.142-3.348 1.596a56.591 56.591 0 01-13.07-7.936c-.242-.195-.482-.39-.715-.583 1.114-4.032 1.85-9.813.587-13.878a34.524 34.524 0 015.826-3.01c.341.484.693 1.012 1.051 1.572 2.84 4.464 5.734 10.723 8.153 17.618.545 1.557 1.05 3.1 1.516 4.62zM19.009 91.17c-1.956-1.679-3.914-3.766-5.546-5.766a30.343 30.343 0 016.098-5.857c.74 2.9.521 7.212-.552 11.623zm-6.611-7.129c-.451-.58-.88-1.197-1.288-1.807a26.703 26.703 0 012.072-3.265c1.4-1.773 2.788-2.708 3.906-2.628.89.059 1.488.81 1.869 1.547a32.325 32.325 0 00-6.56 6.153zm42.07 2.013c-3.357-.554-7.155-2.433-9.94-4.2-3.403-2.154-6.258-4.702-8.04-7.173a13.014 13.014 0 01-.894-1.415 31.1 31.1 0 015.89-.16c6.428.449 11.899 2.93 15.421 6.851.375.403.732.853 1.055 1.301-1.023 1.695-2.21 3.287-3.492 4.796zm4.574-6.602c-1.065-1.52-1.992-2.8-3.282-4.158a28.881 28.881 0 00-18.869-8.883c-4.26-.298-8.45.345-12.456 1.912-6.199 2.425-10.952 6.618-14.37 12.297C2.988 68.818 3.516 53.085 6.036 40c.007-.001 1.433-.194 1.46-.2 4.412-.835 8.676-2.788 12.6-5.782 1.385-1.055 2.636-2.18 3.866-3.398l-2.65 9.644c-.396 1.449.304 1.96 1.561 1.132l11.364-7.482L45.6 41.396c1.257.827 1.958.317 1.56-1.132l-2.648-9.644c3.02 3.002 6.382 5.5 10.3 7.242 2.502 1.113 4.92 1.8 7.625 2.138 2.546 13.225 2.957 27.186-3.394 39.452zM39.11 98.52c-.442-1.439-.92-2.898-1.435-4.365-2.462-7.02-5.417-13.4-8.32-17.97-.28-.438-.563-.868-.843-1.274 1.73-.6 3.514-1.063 5.304-1.378.332.696.764 1.417 1.29 2.147 1.906 2.642 4.925 5.346 8.508 7.614 2.743 1.739 6.369 3.54 9.559 4.23-2.984 3.25-6.523 6.216-10.264 8.691a55.582 55.582 0 01-3.8 2.305zM34.236 5.297l4.67 12.394 13.229.611-10.343 8.271 3.507 12.772-11.063-7.283-11.064 7.283 3.506-12.771-10.342-8.272 13.229-.611 4.67-12.394zm0 96.647c1.692-.555 3.479-1.391 5.099-2.199a56.238 56.238 0 005.954-3.447 55.24 55.24 0 007.002-5.499 47.193 47.193 0 006.713-7.694 43.96 43.96 0 005.086-9.701c2.857-7.655 3.174-14.998 2.632-22.918-.221-3.212-.652-7.35-1.49-11.75-3.4-.078-6.836-.926-9.915-2.313-3.143-1.416-6.102-3.443-8.815-5.99-.804-.747-2.636-2.533-2.946-3.288l10.625-8.494c1.174-.94.906-1.765-.597-1.834l-13.588-.628L35.2 3.46c-.266-.703-.615-1.055-.964-1.055-.35 0-.7.352-.965 1.055l-4.796 12.73-13.588.628c-1.503.069-1.771.895-.598 1.834l10.625 8.494c-.309.755-2.141 2.54-2.945 3.289-2.712 2.546-5.672 4.573-8.815 5.989-3.08 1.387-6.515 2.235-9.915 2.314-.838 4.398-1.27 8.537-1.49 11.749-.542 7.92-.226 15.263 2.632 22.918a43.922 43.922 0 005.087 9.701A47.097 47.097 0 0016.18 90.8a55.373 55.373 0 007.001 5.499 56.352 56.352 0 005.955 3.447c1.62.808 3.407 1.644 5.1 2.2z"/>
    <path fill="#D61920" d="M35.04 69.5c-.327.515-.371 1.252-.13 2.14a32.758 32.758 0 016.693-.233c3.772.264 7.337 1.204 10.388 2.73a27.55 27.55 0 00-2.559-1.85c-2.843-1.7-7.041-3.64-10.612-3.89-1.904-.134-3.246.26-3.78 1.102m19.428 16.556c-3.357-.554-7.155-2.433-9.94-4.2-3.403-2.154-6.258-4.702-8.04-7.173a13.014 13.014 0 01-.894-1.415 31.1 31.1 0 015.89-.16c6.428.449 11.899 2.93 15.421 6.851.375.403.732.853 1.055 1.301-1.023 1.695-2.21 3.287-3.492 4.796M39.11 98.52c-.442-1.439-.92-2.898-1.435-4.365-2.462-7.02-5.417-13.4-8.32-17.97-.28-.438-.563-.868-.843-1.274 1.73-.6 3.514-1.063 5.304-1.378.332.696.764 1.417 1.29 2.147 1.906 2.642 4.925 5.346 8.508 7.614 2.743 1.739 6.369 3.54 9.559 4.23-2.984 3.25-6.523 6.216-10.264 8.691a55.582 55.582 0 01-3.8 2.305m-1.525.818c-.466-1.52-.971-3.063-1.516-4.62-2.42-6.895-5.313-13.154-8.153-17.618-.358-.56-.71-1.088-1.051-1.572a34.524 34.524 0 00-5.826 3.01c1.262 4.065.527 9.846-.587 13.878.233.193.473.388.715.583a56.591 56.591 0 0013.07 7.936c1.105-.454 2.282-1.046 3.348-1.597m-18.575-8.167c-1.956-1.679-3.914-3.766-5.546-5.766a30.343 30.343 0 016.098-5.857c.74 2.9.521 7.212-.552 11.623m-6.611-7.129a32.294 32.294 0 016.559-6.153c-.381-.738-.978-1.488-1.869-1.547-1.118-.08-2.506.855-3.906 2.628a26.703 26.703 0 00-2.072 3.265c.408.61.837 1.228 1.288 1.807m20.82-12.133c-.343-1.389-.215-2.808.812-3.869a26.941 26.941 0 00-9.841 2.206c1.006.633 2.104 1.717 3.277 3.23a36.342 36.342 0 015.752-1.567m-16.03 2.73a27.064 27.064 0 014.801-3.328.78.78 0 01.265-.022c.503.035 1.624.452 3.548 2.832a36.351 36.351 0 00-5.428 2.82c-.625-1.142-1.795-2.302-3.186-2.302"/>
    <path fill="#003274" d="M59.041 79.453c-1.064-1.52-1.991-2.8-3.28-4.158a28.883 28.883 0 00-21.526-8.947V33.915L45.6 41.397c1.256.827 1.957.317 1.56-1.131l-2.647-9.645c3.018 3.001 6.38 5.5 10.298 7.242 2.503 1.113 4.922 1.8 7.626 2.138 2.547 13.224 2.957 27.185-3.395 39.452"/>
    <path fill="#D61920" d="M20.509 45.76h-3.624l-.612 11.684h-3.227l.613-11.683h-3.624l-.794 15.156h7.835l-.168 3.216h3.623l.35-6.69h-.985l.613-11.682zm-.3 12.323l-.285 5.41h-2.342l.168-3.216H9.916l.726-13.877h2.343l-.612 11.683h4.507l.612-11.683h2.343l-.613 11.683h.986zM27.954 49c.652 0 1.115.252 1.457.791.249.39.401.852.453 1.374l.056.577h3.466l-.015-.656c-.042-1.569-.56-2.89-1.542-3.927-1.02-1.083-2.33-1.632-3.895-1.632-2.08 0-3.655.922-4.683 2.741-.778 1.374-1.17 3.122-1.17 5.196 0 2.116.376 3.865 1.12 5.199.992 1.785 2.559 2.69 4.658 2.69 1.647 0 3-.582 4.016-1.726.972-1.073 1.475-2.449 1.496-4.084l.008-.648h-3.5l-.053.582c-.192 2.063-1.217 2.33-2.087 2.33-.42 0-1.03-.141-1.483-1.36-.28-.76-.424-1.715-.424-2.834 0-3.06.713-4.613 2.122-4.613zm-2.763 4.613c0 1.202.157 2.221.466 3.057.44 1.183 1.135 1.776 2.082 1.776 1.636 0 2.543-.97 2.724-2.91h2.268c-.02 1.482-.462 2.702-1.33 3.661-.898 1.012-2.078 1.515-3.542 1.515-1.858 0-3.223-.786-4.1-2.36-.692-1.244-1.04-2.875-1.04-4.888 0-1.97.363-3.597 1.088-4.881.91-1.61 2.286-2.416 4.127-2.416 1.389 0 2.532.476 3.43 1.431.874.924 1.329 2.092 1.367 3.505H30.5a3.72 3.72 0 00-.548-1.655c-.459-.724-1.125-1.088-1.998-1.088-1.843 0-2.763 1.75-2.763 5.253zM54.62 45.76h-3.654l-3.552 15.156h3.71l.714-2.963h3.094l1.027 2.963h3.72L54.618 45.76zm.767 11.552l1.028 2.964h2.375L54.159 46.4H51.47l-3.25 13.877h2.398l.713-2.964h4.054zm-3.51-2.194h2.903l-1.786-5.385-1.117 5.385zm2.017-.64h-1.231l.474-2.284.757 2.285zm-7.17-8.718h-4.28l-3.553 5.102V45.76h-3.623v15.156h3.623v-6.05l3.88 6.05h4.353l-5.37-8.165 4.97-6.991zm-.788 14.516H43.12l-3.942-6.143h-.93v6.143h-2.34V46.4h2.34v5.54h.67l3.858-5.54h2.707l-4.504 6.338 4.956 7.539z"/>
    <path fill="#FEFEFE" d="M51.332 57.313h4.054l1.028 2.964h2.375L54.159 46.4H51.47l-3.25 13.877h2.398l.713-2.964zm1.66-7.578l1.787 5.384h-2.903l1.117-5.384zm-14.743 4.4h.93l3.94 6.142h2.816l-4.956-7.538 4.505-6.339h-2.708l-3.858 5.54h-.67V46.4h-2.341v13.877h2.342v-6.143zM17.58 63.492h2.343l.284-5.41h-.986l.613-11.683h-2.343l-.612 11.683h-4.507l.612-11.683h-2.343l-.726 13.877h7.833l-.168 3.216zm10.279-2.78c1.464 0 2.644-.503 3.543-1.514.867-.96 1.31-2.18 1.33-3.662h-2.269c-.181 1.94-1.088 2.91-2.723 2.91-.95 0-1.643-.592-2.083-1.777-.31-.834-.466-1.855-.466-3.056 0-3.503.92-5.253 2.76-5.253.876 0 1.542.362 2.001 1.089.302.476.485 1.028.547 1.654h2.232c-.038-1.412-.493-2.581-1.367-3.504-.9-.956-2.041-1.433-3.431-1.433-1.839 0-3.216.807-4.127 2.417-.724 1.283-1.087 2.91-1.087 4.881 0 2.013.347 3.643 1.04 4.888.876 1.575 2.242 2.36 4.1 2.36z"/>
    <path fill="#C3151C" d="M34.235 5.297l4.671 12.394-4.671 6.426z"/>
    <path fill="#E01B22" d="M34.235 5.297l-4.671 12.394 4.671 6.426z"/>
    <path fill="#EC1D24" d="M16.335 18.301l13.231-.613 4.669 6.429z"/>
    <path fill="#C3151C" d="M16.335 18.301l10.344 8.273 7.556-2.457z"/>
    <path fill="#E01B22" d="M23.172 39.343l3.506-12.772 7.557-2.453z"/>
    <path fill="#A60E12" d="M23.172 39.343l11.065-7.282-.002-7.943z"/>
    <path fill="#E01B22" d="M45.297 39.343l-11.064-7.282.001-7.943z"/>
    <path fill="#C3151C" d="M45.297 39.343l-3.506-12.772-7.557-2.453z"/>
    <path fill="#A60E12" d="M52.133 18.301L41.79 26.574l-7.556-2.457z"/>
    <path fill="#E01B22" d="M52.133 18.301l-13.23-.613-4.669 6.429z"/>
  </g>
</svg>
