<svg xmlns="http://www.w3.org/2000/svg" width="26" height="26" viewBox="0 0 26 26">
    <g>
        <path d="M13.63 10.5c.165-.12.323-.257.466-.412.398-.43.699-.983.825-1.59.22-.908-.035-1.696-.563-2.133-.278-.23-.63-.365-1.029-.365h-2.315l-.075.365L10 11h2.218c.492 0 .983-.188 1.413-.5zm-1.376-2.7h1.075c.056 0 .089.011.105.018.004.027.007.09-.02.195l-.008.032-.006.033c-.12.576-.695 1.12-1.182 1.12h-.247l.283-1.397z"/>
        <path d="M24.621 6.616c-.526-.647-1.19-1.183-1.943-1.596-.247-1.085-.731-1.91-1.208-2.497C20.185.943 18.082 0 15.843 0H4.985l-.32 1.407L.5 19.71 0 21.908H4.081l-.43 1.893-.5 2.199H12.412l.314-1.414 1.036-4.647h2.473c4.794 0 8.541-2.915 9.548-7.424.645-2.897-.276-4.807-1.163-5.9zM4.493 20.104H2.28L6.446 1.802h9.397c1.74 0 3.657.778 4.596 2.426.323.568.53 1.24.573 2.019.031.542-.017 1.138-.162 1.786-.33 1.48-1.015 2.713-1.948 3.675-1.425 1.473-3.436 2.296-5.677 2.329-.048 0-.094.005-.14.005h-3.94l-1.35 6.062H4.492zm19.509-7.978c-.844 3.784-3.995 6.01-7.766 6.01h-3.94l-1.35 6.062H5.433l.521-2.29h3.31l.315-1.415 1.035-4.647h2.473c4.793 0 8.54-2.914 9.546-7.423.085-.382.142-.746.177-1.095 1.077 1.02 1.684 2.602 1.193 4.798z"/>
    </g>
</svg>
