<svg width="6" height="12" viewBox="0 0 6 12" fill="none" xmlns="http://www.w3.org/2000/svg">
<path fill-rule="evenodd" clip-rule="evenodd" d="M3.17798 3.13325L3.23732 3.14498C3.29162 3.14884 3.34547 3.16681 3.39248 3.19979L4.8043 4.1904C5.03284 4.35075 5.16766 4.60439 5.16766 4.87399V6.24194C5.16766 6.39848 5.03385 6.52539 4.86877 6.52539C4.7037 6.52539 4.56988 6.39848 4.56988 6.24194V4.87399C4.56988 4.78412 4.52493 4.69958 4.44875 4.64613L3.73073 4.142L3.73126 6.24194C3.73088 6.3952 3.66582 6.54773 3.5376 6.65943L1.93326 8.05704C1.8453 8.13367 1.78357 8.23352 1.75601 8.34372L1.17956 10.6488C1.10337 10.9534 0.781204 11.1418 0.45997 11.0696C0.138737 10.9973 -0.0599155 10.6918 0.0162696 10.3871L0.592723 8.08208C0.675403 7.75146 0.8606 7.45191 1.12446 7.22205L1.93979 6.51109L1.93993 4.04245C1.93993 3.85306 2.03966 3.67618 2.20573 3.57101L2.7563 3.22231C2.88317 3.14195 3.03388 3.11255 3.17798 3.13325ZM2.73072 8.0688L3.60019 7.35424C3.64329 7.38103 3.68319 7.41345 3.71858 7.45123L3.76815 7.51191L5.67594 10.2015C5.86021 10.4613 5.78752 10.8136 5.51358 10.9883C5.25921 11.1506 4.92078 11.1028 4.72619 10.8871L4.68394 10.8344L2.77615 8.14475C2.75872 8.12018 2.7436 8.09479 2.73072 8.0688L3.60019 7.35424L2.73072 8.0688ZM1.67315 4.94537V5.69595L0.977955 6.26973C0.867219 6.36102 0.705763 6.36128 0.595186 6.27723L0.556292 6.24178C0.460025 6.13676 0.459751 5.98363 0.548375 5.87876L0.585772 5.84189L1.67315 4.94537ZM1.85011 0.804077C2.51039 0.804077 3.04566 1.3117 3.04566 1.93788C3.04566 2.56407 2.51039 3.07169 1.85011 3.07169C1.18982 3.07169 0.654548 2.56407 0.654548 1.93788C0.654548 1.3117 1.18982 0.804077 1.85011 0.804077Z" fill="black"/>
</svg>
