<svg xmlns="http://www.w3.org/2000/svg" width="18" height="16" viewBox="0 0 18 16">
    <path fill="#A8B2C0" d="M17.12 1.685c-.04-.019-1.04-.463-2.14-.097-.999.333-3.04 1.498-3.126 1.547-.14.08-.276.145-.341.172-.087-.014-.275-.063-.41-.115L4.26.565c-.148-.057-.44-.156-.596-.169-.267-.021-.74.294-.792.33l-.104.07c-.142.097-.392.281-.477.43-.05.087-.202.355.388.886 0 0 4.233 3.816 4.25 3.834-.021.014-2.188 1.266-2.188 1.266-.143.082-.28.149-.346.176-.086-.011-.279-.055-.416-.104L1.614 6.44c-.016-.006-.41-.145-.61-.15-.268-.006-.614.276-.617.279-.097.083-.22.223-.277.349-.102.226.027.52.385.87.97.951 2.393 2.372 2.575 2.61.115.277.634 2.218.973 3.535.026.103.121.45.236.592.236.294.744.119.766.111.126-.044.285-.127.377-.196.222-.166.329-.698.348-.802l.452-2.471c.03-.16.068-.307.09-.374.065-.058.225-.176.353-.25l2.19-1.263c.007.025 1.196 5.598 1.196 5.598.035.168.11.469.215.602.168.216.493.208.969-.02l.113-.055c.072-.035.176-.089.278-.147.1-.058.195-.12.253-.172.199-.18.292-.74.302-.803l1.146-7.24c.025-.159.06-.305.079-.373.065-.059.22-.175.346-.248.086-.05 2.115-1.235 2.902-1.933.868-.77.983-1.858.987-1.903.035-.363-.188-.75-.52-.9z"/>
</svg>
