<svg xmlns="http://www.w3.org/2000/svg" width="30" height="30" viewBox="0 0 30 30">
    <g fill="none" fill-rule="evenodd">
        <g fill="#003274" fill-rule="nonzero">
            <g>
                <path d="M30 13.986L16.034.02v9.15c-4.184.219-8.087 1.953-11.072 4.938C1.762 17.308 0 21.562 0 26.088v3.54l1.703-3.104C4.361 21.68 9.448 18.67 14.98 18.67c.35 0 .703.012 1.055.037v9.245L30 13.986zm-15.021 2.87c-4.954 0-9.59 2.155-12.77 5.793 1.56-6.69 7.574-11.688 14.732-11.688h.908V4.402l9.584 9.584-9.584 9.584v-6.488l-.796-.099c-.685-.085-1.383-.128-2.074-.128z" transform="translate(-1275 -474) translate(1275 474)"/>
            </g>
        </g>
    </g>
</svg>
