<svg xmlns="http://www.w3.org/2000/svg" width="20" height="14" viewBox="0 0 20 14">
    <path fill="#78797C" d="M19.366 6.313C19.207 6.055 15.444 0 9.996 0 4.548 0 .784 6.055.626 6.313c-.258.423-.258.955 0 1.378.158.254 3.92 6.292 9.363 6.309h.024c5.438 0 9.193-6.055 9.35-6.313.258-.421.26-.952.003-1.374zm-9.35 6.375h-.02C5.215 12.67 1.736 7 1.736 7s3.479-5.688 8.26-5.688S18.256 7 18.256 7s-3.469 5.688-8.24 5.688zM9.996 3.5c-1.418-.01-2.7.838-3.25 2.145-.549 1.307-.255 2.816.744 3.822 1 1.005 2.507 1.31 3.817.769 1.311-.54 2.166-1.818 2.166-3.236.004-1.926-1.551-3.491-3.477-3.5zm0 5.688c-.886.005-1.688-.524-2.03-1.341-.344-.817-.16-1.76.464-2.389.625-.628 1.567-.818 2.386-.48.819.337 1.354 1.136 1.354 2.022.003 1.204-.97 2.183-2.174 2.188z"/>
</svg>
